<svg  viewBox="0 0 1024 1024" version="1.1" xmlns="http://www.w3.org/2000/svg" p-id="3624" width="200" height="200"><path d="M232.727273 81.035636l744.727273 0 0 42.263273-744.727273 0 0-42.263273Z" p-id="3625"></path><path d="M46.545455 46.545455l93.090909 0 0 92.974545-93.090909 0 0-92.974545Z" p-id="3626"></path><path d="M232.727273 490.868364l744.727273 0 0 42.263273-744.727273 0 0-42.263273Z" p-id="3627"></path><path d="M46.545455 465.524364l93.090909 0 0 92.974545-93.090909 0 0-92.974545Z" p-id="3628"></path><path d="M232.727273 899.118545l744.727273 0 0 42.263273-744.727273 0 0-42.263273Z" p-id="3629"></path><path d="M46.545455 884.48l93.090909 0 0 92.974545-93.090909 0 0-92.974545Z" p-id="3630"></path></svg>