<svg xmlns="http://www.w3.org/2000/svg" viewBox="0 0 125 125"><title>Artboard 2</title><g id="person_8" data-name="person 8"><g id="head_copy_3" data-name="head copy 3"><path id="neck" d="M78.79,83.5S77.27,81.61,77.27,81s-.4-12.33-.4-12.33H46.78S47.1,81.29,46.52,82a17.49,17.49,0,0,0-3.47,5.82c-1.64,4,3.8,8.74,6.46,9.88,5.63,2.42,13.6,2.37,19.62.94a21.86,21.86,0,0,0,11.65-7.15C82.6,89.11,83,85.78,78.79,83.5Z" fill="#fce7d4" stroke="#020202" stroke-miterlimit="10" stroke-width="0.75"/><path id="face-2" data-name="face" d="M79.48,57s-.53,9-.71,9.69a12.76,12.76,0,0,1-1.44,3.48A66.65,66.65,0,0,1,72,77.48c-.92,1-3,4-4.18,4.35a26.78,26.78,0,0,1-5.71.92c-1.22-.07-5.61-.66-6.58-1.25s-4.28-4.51-7-8.16-4.17-6.6-4.36-7.52a40.55,40.55,0,0,1-.26-4.22l-.47.12s-.06.93-.87,1c-1.16.15-1.86-1.31-2.16-2.21-.51-1.5-.29-3.14-.82-4.64s-3-6.71-1-8c1.7-1.16,3.22.48,3.78,2a13.7,13.7,0,0,1,.43,1.59l.33-.08s0-2.9,0-4.94c.09-3.78-1.07-8,.35-11.67,4.67-12.08,9.09-12.53,19.93-12.89C73,21.59,78.4,29.44,79.13,33A35.68,35.68,0,0,1,80,41.77c-.14,2.66-.5,9.29-.5,9.29l.31.07a28,28,0,0,1,1.28-3.24,1.68,1.68,0,0,1,3.11,1.25c-.29,1-.8,4-1,5.25a15.74,15.74,0,0,0,0,2.66c0,.8-.35,3.61-1.54,3.57C80.91,60.61,79.11,60.65,79.48,57Z" fill="#fce7d4" stroke="#020202" stroke-miterlimit="10" stroke-width="0.75"/></g><g id="sweater_copy_3" data-name="sweater copy 3"><path id="Sweater-4" data-name="Sweater" d="M121,125s-3-12.73-5.28-17.15a26.7,26.7,0,0,0-12.29-11.53c-5.63-2.55-24.71-14.69-24.71-14a15.57,15.57,0,0,1-4,11.26c-4,4.29-18.18,3-23.59.38a10.51,10.51,0,0,1-5.87-7.45c-.33-1-.72-2.62-.72-2.62s-22,11.56-24.43,12.74-6,2.69-8.28,5.6-6.7,14.17-7.42,17.49A21.86,21.86,0,0,0,3.81,125" fill="#202133" stroke="#000" stroke-miterlimit="10" stroke-width="0.75"/></g><g id="hair_copy_3" data-name="hair copy 3"><path d="M48.24,22.55s1.64-7,5.56-9.11c4.82-2.66,9.24-1,13.59,1.17a38.62,38.62,0,0,1,9.53,6.78C80.1,24.25,84,29.18,84.21,30a8.13,8.13,0,0,1,0,2.75c-.11.53-1.15,1.33-1.15,1.33s.68,5.65-.74,8c-1.9,3.23-2,7.89-2.33,9.05s-.74.74-.74.6.09-9.81-.26-11-1.22-2.33-.8-3.28a14.29,14.29,0,0,0,.58-3.39s-4.34-3.23-5.29-3.89-4.29-2.52-5.93-2.57a14.72,14.72,0,0,0-5.14.63c-1.86.59-2.26,1.75-2.79,1.7s-3-2-6.38-2.12-5.13-.05-6.51,1.38-2.7,2.91-2.49,5.5.11,3.24,0,3.71a10,10,0,0,0-.83,2.81c0,1,.11,10.59,0,10.91s-.47-.11-.74-1-.69-5.5-.79-6.4-2.49-6.25-2.65-8.69-.85-5.62.37-8.74,2.33-4.69,3.34-5.48S47.29,21.9,48.24,22.55Z" fill="#8e570e" stroke="#000" stroke-miterlimit="10" stroke-width="0.75"/></g><g id="nose_copy_3" data-name="nose copy 3"><path d="M61.69,56.7s6.29-2.15,5.69,1.57S61,61.5,61,61.5" fill="#fce7d4" stroke="#020202" stroke-miterlimit="10" stroke-width="0.75"/></g><g id="mouth_copy_3" data-name="mouth copy 3"><path d="M57.26,71.46s3.15-1,4.76-.82S66.3,73,67.61,73.21" fill="none" stroke="#020202" stroke-miterlimit="10" stroke-width="0.75"/></g><g id="stubble-2" data-name="stubble"><line x1="49.37" y1="64.66" x2="49.37" y2="65.31" fill="#60a5c4" stroke="#000" stroke-miterlimit="10" stroke-width="0.75"/><line x1="47.07" y1="58.99" x2="47.07" y2="59.65" fill="#60a5c4" stroke="#000" stroke-miterlimit="10" stroke-width="0.75"/><line x1="48.47" y1="68.34" x2="48.47" y2="69" fill="#60a5c4" stroke="#000" stroke-miterlimit="10" stroke-width="0.75"/><line x1="54.37" y1="65.64" x2="54.37" y2="66.29" fill="#60a5c4" stroke="#000" stroke-miterlimit="10" stroke-width="0.75"/><line x1="51.36" y1="70.38" x2="51.36" y2="71.04" fill="#60a5c4" stroke="#000" stroke-miterlimit="10" stroke-width="0.75"/><line x1="52.23" y1="60.01" x2="52.23" y2="60.66" fill="#60a5c4" stroke="#000" stroke-miterlimit="10" stroke-width="0.75"/><line x1="70.65" y1="60.01" x2="70.65" y2="60.66" fill="#60a5c4" stroke="#000" stroke-miterlimit="10" stroke-width="0.75"/><line x1="75.33" y1="59.68" x2="75.33" y2="60.33" fill="#60a5c4" stroke="#000" stroke-miterlimit="10" stroke-width="0.75"/><line x1="69.59" y1="65.01" x2="69.59" y2="65.66" fill="#60a5c4" stroke="#000" stroke-miterlimit="10" stroke-width="0.75"/><line x1="66.48" y1="67.24" x2="66.48" y2="67.9" fill="#60a5c4" stroke="#000" stroke-miterlimit="10" stroke-width="0.75"/><line x1="65.3" y1="77.75" x2="65.3" y2="78.41" fill="#60a5c4" stroke="#000" stroke-miterlimit="10" stroke-width="0.75"/><line x1="58.73" y1="78.73" x2="58.73" y2="79.38" fill="#60a5c4" stroke="#000" stroke-miterlimit="10" stroke-width="0.75"/><line x1="60.69" y1="76.13" x2="60.69" y2="76.78" fill="#60a5c4" stroke="#000" stroke-miterlimit="10" stroke-width="0.75"/><line x1="74.04" y1="67.31" x2="74.04" y2="67.97" fill="#60a5c4" stroke="#000" stroke-miterlimit="10" stroke-width="0.75"/><line x1="77.34" y1="65.31" x2="77.34" y2="65.97" fill="#60a5c4" stroke="#000" stroke-miterlimit="10" stroke-width="0.75"/></g><g id="eyes_copy_2" data-name="eyes copy 2"><path id="Eye" d="M55.45,46.45c0,1.33-.55,2.41-1.23,2.41S53,47.78,53,46.45,53,44,54.22,44C55.06,44,55.45,45.12,55.45,46.45Z" fill="#fff" stroke="#020202" stroke-miterlimit="10" stroke-width="0.75"/><path id="Eye-2" data-name="Eye" d="M71.28,46c0,1.44-.55,2.6-1.23,2.6s-1.23-1.16-1.23-2.6,0-2.6,1.23-2.6C70.89,43.41,71.28,44.57,71.28,46Z" fill="#fff" stroke="#020202" stroke-miterlimit="10" stroke-width="0.75"/><path id="undereye" d="M55.22,50.2a3.69,3.69,0,0,1-2.08,1c-1.08,0-2.61-.56-2.88-1.32" fill="none" stroke="#020202" stroke-miterlimit="10" stroke-width="0.75"/><path id="undereye-2" data-name="undereye" d="M66.55,50.34a6.8,6.8,0,0,0,2.92,1.25,3.41,3.41,0,0,0,2.46-1.51" fill="none" stroke="#020202" stroke-miterlimit="10" stroke-width="0.75"/><path id="eyebrow" d="M65,39.33s1.91-1.9,3.81-1.9,2.86,1.9,4.77,2.85" fill="none" stroke="#020202" stroke-miterlimit="10" stroke-width="0.75"/><path id="eyebrow-2" data-name="eyebrow" d="M59.26,40.28a11.71,11.71,0,0,0-2.86-1.9,4.49,4.49,0,0,0-5.71.95c-1.9,1.91-1.9,1.91-2.86,1.91" fill="none" stroke="#020202" stroke-miterlimit="10" stroke-width="0.75"/></g><g id="glasses-2" data-name="glasses"><path d="M81.33,23.12a42.48,42.48,0,0,0-8.15-.62,76,76,0,0,0-9.64,1.72,9.71,9.71,0,0,1-2.45.37,17.87,17.87,0,0,1-3.31-.68,46.68,46.68,0,0,0-6.55-1.23,57.79,57.79,0,0,0-7.79-.09c-2.49.28-2.83.5-2.8.72l.4,2.45a4.5,4.5,0,0,1,.54.21,1.23,1.23,0,0,1,.44.5c.1.25,1.56,5.2,1.65,5.44a4.24,4.24,0,0,0,.81,1.41,6.46,6.46,0,0,0,2.12,1.36,12.25,12.25,0,0,0,2.79.63,13.07,13.07,0,0,0,3.29-.08A8,8,0,0,0,56,33.73a11.64,11.64,0,0,0,2.24-2.9c.32-.74,1.34-3.13,1.55-3.42a1.74,1.74,0,0,1,1.3-.55,1.46,1.46,0,0,1,1.35.83c.28.57,1.15,2.79,1.81,3.92A6.56,6.56,0,0,0,68.41,35,11.33,11.33,0,0,0,74.64,35,6.72,6.72,0,0,0,77,33.87a6.31,6.31,0,0,0,1.17-1.5c.3-.63,1.25-4,1.32-4.38a6.51,6.51,0,0,1,.74-1.84,2.78,2.78,0,0,1,.75-.39l.41-2.45A.39.39,0,0,0,81.33,23.12ZM56.55,30a10.18,10.18,0,0,1-2,3,6.73,6.73,0,0,1-4.43,1,8.38,8.38,0,0,1-3.92-1c-.85-.38-1.22-1.48-1.62-2.52a14.38,14.38,0,0,1-.47-4.31.92.92,0,0,1,0-.16A1.49,1.49,0,0,1,44.62,25c1-.92,2.5-.89,3.73-.95a21.57,21.57,0,0,1,4.25.23c1.35.21,4.32.53,4.55,2.35A13,13,0,0,1,56.55,30Zm20.72.54c-.4,1-.77,2.14-1.62,2.52a8.42,8.42,0,0,1-3.92,1,6.73,6.73,0,0,1-4.43-1,10.1,10.1,0,0,1-2-3,8.43,8.43,0,0,1-.61-3.27c.18-1.42,2.08-2,3.29-2.26A24.3,24.3,0,0,1,73,24c1.31.05,3.14,0,4.2,1a1.54,1.54,0,0,1,.5,1.09v.16A14.27,14.27,0,0,1,77.27,30.52Z"/><g opacity="0.7"><path d="M44.62,25a1.51,1.51,0,0,0-.49,1.1.81.81,0,0,0,0,.16,14.31,14.31,0,0,0,.47,4.3c.4,1,.77,2.14,1.62,2.52a8.13,8.13,0,0,0,3.92,1,6.67,6.67,0,0,0,4.43-1,10.13,10.13,0,0,0,2-3,13,13,0,0,0,.6-3.39c-.23-1.82-3.2-2.15-4.55-2.36A21.56,21.56,0,0,0,48.35,24C47.12,24.08,45.58,24.06,44.62,25Z"/></g><g opacity="0.7"><path d="M77.23,25a1.56,1.56,0,0,1,.5,1.1v.16a14.34,14.34,0,0,1-.46,4.3c-.4,1-.77,2.13-1.62,2.51a8.17,8.17,0,0,1-3.92,1,6.67,6.67,0,0,1-4.43-1,10.1,10.1,0,0,1-2-3,8.4,8.4,0,0,1-.61-3.27c.18-1.42,2.08-2,3.29-2.25a24.31,24.31,0,0,1,5-.5C74.34,24,76.17,24,77.23,25Z"/></g></g></g></svg>