<svg xmlns="http://www.w3.org/2000/svg" viewBox="0 0 125 125"><title>Artboard 25 copy 7</title><g id="Layer_141" data-name="Layer 141"><path d="M48.22,79.06c1.23-.53,3.71-3.51,3.71-3.51A58.79,58.79,0,0,0,53.66,68c.26-2.65.66-9.91.66-9.91l25.21,1.18s0,7.11,0,7.85a69.19,69.19,0,0,0,.44,8,12,12,0,0,0,2.68,7.19,24.38,24.38,0,0,0,3.86,3.3s4.42,2.32,5.6,3.12a36.25,36.25,0,0,0,3.42,1.85S99,97.92,94.72,104s-18.57,7.93-27.37,6S37.15,95.68,40.19,89.73,43.62,81.07,48.22,79.06Z" fill="#fce7d4" stroke="#020202" stroke-miterlimit="10" stroke-width="0.75"/><g id="turtleneck"><path d="M118.18,125.55c-.21,0-1.38-11.38-1.68-12.81a60.5,60.5,0,0,0-2-7.54c-1.91-5.47-4.92-10.85-9.83-13.07a101.29,101.29,0,0,1-9.41-4.48c-2.39-1.27-4.53-2.7-6.92-4-1.19-.64-1.7-1.12-2.89-1.75-.58-.31-1.24-.44-1.8-.78s-1.07-2.08-1.51-2.51a6.06,6.06,0,0,1-2.18-3.91c-.1-.46-.35-2-.42-2.57,0-.22-.38-10.42-.19-9,0,0-29.5-4-29.52-3.95s.41,13.06.41,13.13c0,.91-.78,2-.6,2.87a4.77,4.77,0,0,1-.43,2.57c-.53,1.54-2.62,1.68-3.88,2.57s-1.45,2.3-3,2.94-3.05,1.44-4.57,2.17c-6.66,3.21-7.82,3.46-14.47,6.7-.26.13-.53.29-.81.4-2.7,1.33-6.71,3-9.33,6.31S8.76,116.82,8,120.57s-1.13,5-1.13,5" fill="#f9f7e1" stroke="#020202" stroke-miterlimit="10" stroke-width="0.75"/></g><path d="M87.84,43.68s-.27-2.23-.28-2.34c-.25-.52-.26-1-.47-1.54a5.65,5.65,0,0,1-.23-.57c-.28-1.43-.74-2.78-1-4.2s-.56-2.66-.88-4c-.91-3.86-2.37-8.56-5.35-11.44C77.68,17.75,75,17.14,72.4,17a27.18,27.18,0,0,0-13.57,2.44,27.34,27.34,0,0,0-9.53,8c-2.71,3.64-2.54,8-2,12.33a61.67,61.67,0,0,0,2,9.49c1.27,4.24,5.94,15.05,5.94,15.05,3.82,5.58,10.29,11.51,15.41,10.33,2.77-.63,5.18-2.75,7.15-4.68,2.16-2.1,4.44-4.35,5.66-7.16a48.39,48.39,0,0,0,2.5-7.7,42.39,42.39,0,0,0,1-5.71c.1-1,.8-1.56.79-2.53,0-.66.25-.68.22-1.34a5,5,0,0,0-.15-.93c0-.15-.06-.3-.09-.45A2.39,2.39,0,0,1,87.84,43.68Z" fill="#fce7d4" stroke="#020202" stroke-miterlimit="10" stroke-width="0.75"/><path d="M79.83,73.69,89.06,80s4.81-19.78,4.86-28c.06-11.42-4.41-22-9.8-30.65s-10.32-8-11.65-8.17-2.48-.81-3.79-.87c-7.37-.33-15.34.86-20.29,5.77-4.7,4.66-10.51,14.52-10.81,21.3-.07,1.63-.11,3.25-.1,4.87a95.23,95.23,0,0,0,1.12,15.9c.43,2.73,3.66,10.64,5.51,12.86l.28.34a21.16,21.16,0,0,0,3.51,3.24c1.54,1.18,3.14,2.3,4.75,3.39,1.2.83,2.42,1.64,3.64,2.45,1,.66,1.92,1.44,2.94,2.08S61.4,85.8,60.85,84c-3-9.8-14.45-40.45-.88-52.74A79,79,0,0,0,71.25,17.62a7.28,7.28,0,0,1,5.16.06,9.91,9.91,0,0,1,4,3.27,23.68,23.68,0,0,1,2.94,5.27,45.72,45.72,0,0,1,2,6.05c.5,1.84.91,3.72,1.25,5.6a40.89,40.89,0,0,1,1,4.49,28.77,28.77,0,0,1-.55,5.79c-.27,1.88-.74,3.73-1.14,5.58-1.21,5.62-1.82,8.26-2.77,9.83a58.87,58.87,0,0,1-3.7,4.81S79.65,73.18,79.83,73.69Z" fill="#7f500b" stroke="#020202" stroke-miterlimit="10" stroke-width="0.75"/><path d="M75.52,33.91s3.19-1.74,4.73-1.78,3.38,1.73,3.88,2.39" fill="none" stroke="#020202" stroke-miterlimit="10" stroke-width="0.75"/><path d="M66,64.4c2.1.59,5-1.81,5.26-2.86s-4-.49-6.06-1.08S62,57.24,61.67,58.28,63.85,63.81,66,64.4Z" fill="#fff" stroke="#020202" stroke-miterlimit="10" stroke-width="0.75"/><path d="M65.18,34s-2.24-3-4.26-3.61" fill="none" stroke="#020202" stroke-miterlimit="10" stroke-width="0.75"/><ellipse cx="79.16" cy="40.65" rx="1.21" ry="2.52" fill="#fff" stroke="#020202" stroke-miterlimit="10" stroke-width="0.75"/><ellipse cx="62.09" cy="40.73" rx="1.3" ry="2.35" transform="translate(-1.94 3.12) rotate(-2.84)" fill="#fff" stroke="#020202" stroke-miterlimit="10" stroke-width="0.75"/><path id="nose-4" data-name="nose" d="M69,43.84c1.15,5.59,5.46,6.23,5.63,8.16.25,3-4.28,2.88-6.56,1.79" fill="none" stroke="#020202" stroke-miterlimit="10" stroke-width="0.75"/><line x1="78.78" y1="48.42" x2="78.78" y2="49.05" fill="#60a5c4" stroke="#000" stroke-miterlimit="10" stroke-width="0.75"/><line x1="56.54" y1="52.77" x2="56.54" y2="53.4" fill="#60a5c4" stroke="#000" stroke-miterlimit="10" stroke-width="0.75"/><line x1="58.54" y1="48.65" x2="58.54" y2="49.28" fill="#60a5c4" stroke="#000" stroke-miterlimit="10" stroke-width="0.75"/><line x1="62.5" y1="51.42" x2="62.5" y2="52.05" fill="#60a5c4" stroke="#000" stroke-miterlimit="10" stroke-width="0.75"/><line x1="83.43" y1="50.93" x2="83.43" y2="51.55" fill="#60a5c4" stroke="#000" stroke-miterlimit="10" stroke-width="0.75"/><line x1="79.83" y1="52.94" x2="79.83" y2="53.57" fill="#60a5c4" stroke="#000" stroke-miterlimit="10" stroke-width="0.75"/><g id="glasses-2" data-name="glasses"><path d="M88,36.46a37.27,37.27,0,0,0-7-.54,65.75,65.75,0,0,0-8.29,1.49,8.3,8.3,0,0,1-2.11.31,15.08,15.08,0,0,1-2.84-.58,39.5,39.5,0,0,0-5.64-1,46.91,46.91,0,0,0-6.7-.08c-2.14.23-2.43.43-2.4.62l.34,2.1a2.49,2.49,0,0,1,.46.19,1,1,0,0,1,.38.42c.09.22,1.34,4.47,1.42,4.68a3.91,3.91,0,0,0,.69,1.22,5.81,5.81,0,0,0,1.83,1.16,11.13,11.13,0,0,0,2.4.55,11.79,11.79,0,0,0,2.83-.07,7.05,7.05,0,0,0,2.86-1.3,9.88,9.88,0,0,0,1.92-2.49c.28-.63,1.15-2.69,1.34-2.94a1.48,1.48,0,0,1,1.11-.47,1.28,1.28,0,0,1,1.17.71c.24.49,1,2.4,1.55,3.37a5.62,5.62,0,0,0,3.58,2.93,9.71,9.71,0,0,0,5.36-.06,5.31,5.31,0,0,0,2-.93,4.79,4.79,0,0,0,1-1.29c.26-.54,1.08-3.47,1.14-3.76A5.68,5.68,0,0,1,87,39.07a2.68,2.68,0,0,1,.65-.34l.35-2.1A.38.38,0,0,0,88,36.46Zm-21.31,5.9A8.91,8.91,0,0,1,65,45a5.8,5.8,0,0,1-3.81.88A7,7,0,0,1,57.78,45c-.74-.33-1.06-1.27-1.4-2.17a12.3,12.3,0,0,1-.4-3.7V39a1.34,1.34,0,0,1,.43-.94c.82-.79,2.15-.76,3.21-.81a18.58,18.58,0,0,1,3.65.19c1.16.18,3.71.46,3.91,2A11.22,11.22,0,0,1,66.67,42.36Zm17.82.46c-.35.9-.66,1.84-1.4,2.17a7,7,0,0,1-3.37.84A5.82,5.82,0,0,1,75.91,45a9,9,0,0,1-1.7-2.58,7.45,7.45,0,0,1-.52-2.82c.15-1.22,1.79-1.75,2.82-1.93a20.39,20.39,0,0,1,4.33-.43c1.13,0,2.7,0,3.61.86a1.3,1.3,0,0,1,.43.94s0,.09,0,.14A12.56,12.56,0,0,1,84.49,42.82Z"/></g></g></svg>