<svg xmlns="http://www.w3.org/2000/svg" viewBox="0 0 125 125"><title>Artboard 3</title><g id="person_7" data-name="person 7"><g id="head_copy_2" data-name="head copy 2"><path id="neck" d="M78.63,86.71s-3.29-1.81-3.29-2.36S75,76.18,75,76.18H50.67s.3,7.5-.25,8.13c-1.6,1.82-5.08,3.15-6.07,5.59-1.58,3.85,3.64,8.38,6.19,9.47,5.41,2.32,13.05,2.28,18.83.91a21.08,21.08,0,0,0,11.18-6.86C82.28,91.19,82.67,88.9,78.63,86.71Z" fill="#fce7d4" stroke="#020202" stroke-miterlimit="10" stroke-width="0.75"/><path id="face-2" data-name="face" d="M79.29,60.36s-.5,8.59-.68,9.3A12,12,0,0,1,77.23,73a65.61,65.61,0,0,1-5.14,7c-.89,1-2.92,3.85-4,4.17a26.65,26.65,0,0,1-5.48.88c-1.17-.07-5.39-.63-6.32-1.19s-4.1-4.34-6.72-7.83-4-6.34-4.18-7.22a39.46,39.46,0,0,1-.25-4l-.45.12s-.06.89-.84,1c-1.12.14-1.79-1.26-2.07-2.12-.49-1.44-.28-3-.79-4.45s-2.87-6.44-1-7.71c1.64-1.11,3.1.46,3.63,2A13.29,13.29,0,0,1,44,55.1l.32-.08s0-2.78,0-4.74c.09-3.63-1-7.68.33-11.2,4.49-11.58,8.72-12,19.12-12.36,9.27-.3,14.47,7.22,15.17,10.67a33.77,33.77,0,0,1,.82,8.38c-.13,2.55-.48,8.92-.48,8.92l.3.06a26.7,26.7,0,0,1,1.23-3.11,1.61,1.61,0,0,1,3,1.21c-.27,1-.77,3.87-1,5a15.49,15.49,0,0,0,0,2.55c0,.77-.33,3.46-1.47,3.43C80.66,63.84,78.94,63.88,79.29,60.36Z" fill="#fce7d4" stroke="#020202" stroke-miterlimit="10" stroke-width="0.75"/></g><g id="sweater_copy_2" data-name="sweater copy 2"><path id="Sweater-4" data-name="Sweater" d="M118.76,125s-2.46-11.6-4.68-15.84A25.66,25.66,0,0,0,102.29,98.1C96.89,95.65,78.59,84,78.58,84.67a14.9,14.9,0,0,1-3.84,10.8c-3.83,4.12-17.44,2.87-22.63.37a10.07,10.07,0,0,1-5.63-7.15c-.32-1-.69-2.51-.69-2.51S24.66,97.27,22.36,98.4s-5.72,2.58-7.95,5.37S8,117.36,7.29,120.54a15.74,15.74,0,0,0-.58,4.07" fill="#fff" stroke="#000" stroke-miterlimit="10" stroke-width="0.75"/></g><g id="hair_copy_2" data-name="hair copy 2"><path d="M49.33,27.34s1.57-6.67,5.33-8.75c4.63-2.55,8.87-1,13,1.13a36.83,36.83,0,0,1,9.15,6.51c3,2.74,6.79,7.46,7,8.28a7.74,7.74,0,0,1,0,2.64c-.1.51-1.1,1.27-1.1,1.27s.65,5.42-.71,7.72c-1.83,3.1-1.93,7.57-2.23,8.69s-.71.71-.71.57.08-9.41-.26-10.53-1.17-2.23-.76-3.15a13.88,13.88,0,0,0,.56-3.25s-4.17-3.09-5.08-3.73-4.12-2.42-5.69-2.47a14.25,14.25,0,0,0-4.93.61c-1.78.56-2.17,1.68-2.67,1.63s-2.92-1.93-6.12-2-4.93,0-6.25,1.32-2.59,2.79-2.39,5.28a10.21,10.21,0,0,1,0,3.56,9.78,9.78,0,0,0-.79,2.69c0,1,.1,10.16,0,10.47s-.46-.1-.71-1-.66-5.28-.76-6.15-2.39-6-2.55-8.33S39.85,35,41,32s2.24-4.49,3.21-5.26S48.42,26.71,49.33,27.34Z" fill="#8e570e" stroke="#000" stroke-miterlimit="10" stroke-width="0.75"/></g><g id="nose_copy_2" data-name="nose copy 2"><path d="M62.23,60.09s6-2.06,5.46,1.51-6.17,3.1-6.17,3.1" fill="#fce7d4" stroke="#020202" stroke-miterlimit="10" stroke-width="0.75"/></g><g id="hat_copy" data-name="hat copy"><path d="M42.85,29.53s.74-6.14,3.58-8.73S50.27,16.21,53.2,15a21.64,21.64,0,0,1,7.9-1.8c2.22,0,7.18,1.4,10.92,3a13.08,13.08,0,0,1,7.29,7.06,40.67,40.67,0,0,1,2,7.2C81.53,32,43.11,31.47,42.85,29.53Z" fill="#f44711" stroke="#020202" stroke-miterlimit="10" stroke-width="0.75"/><path d="M41.29,45.44s-1.74-3.79.74-5.59,8.34-6,16.84-5.38S69,33.3,75.06,36.18s8.5,6.67,8.29,7.47,1.79-4.56,1.4-7.47-.18-4.31-5-7.9a25.65,25.65,0,0,0-16-5c-5.26.2-11.4-.25-14.71,1.87s-7.78,4.72-8.37,7.71S38.48,43.05,41.29,45.44Z" fill="#f44711" stroke="#020202" stroke-miterlimit="10" stroke-width="0.75"/></g><g id="eyes-4" data-name="eyes"><path d="M73.76,46.63a20.27,20.27,0,0,1,5.69.78,35.84,35.84,0,0,1-1.81,7,21.45,21.45,0,0,1-5.16.68c-.4,0-1,0-1.81,0a11.13,11.13,0,0,1-3.84-.4c-.68-.51-2.57-5.07-3-6.51a30.51,30.51,0,0,1,8.23-1.54c.56,0,1.13-.07,1.69-.07m0-.75c-.56,0-1.14,0-1.74.07-4.86.37-9,1.47-9,2s2.42,6.88,3.43,7.43a11.89,11.89,0,0,0,4.22.5c.68,0,1.32,0,1.85,0,1.82-.09,5.43-.41,5.73-1s2.06-6,2-8a19.42,19.42,0,0,0-6.44-1Z"/><path d="M50.53,46.63c.56,0,1.13,0,1.69.07a30.4,30.4,0,0,1,8.22,1.54c-.42,1.44-2.3,6-3,6.5a10.86,10.86,0,0,1-3.85.41c-.77,0-1.41,0-1.82,0h-.2a25.92,25.92,0,0,1-4.68-.5,35.14,35.14,0,0,1-2.07-7.19,20.18,20.18,0,0,1,5.68-.78m0-.75a19.52,19.52,0,0,0-6.45,1c-.1,2,1.93,7.65,2.23,8.2s3.64.7,5.46.79c.52,0,1.17,0,1.85,0a11.83,11.83,0,0,0,4.21-.5c1-.55,3.44-6.88,3.44-7.43s-4.14-1.65-9-2c-.6-.05-1.19-.07-1.74-.07Z"/><path d="M60,50.09s2.65-1,4.66,0" fill="none" stroke="#000" stroke-miterlimit="10" stroke-width="0.75"/><path id="Eye" d="M55.81,51.83c0,1.51-.53,1.13-1.18,1.13s-1.18.38-1.18-1.13,0-2.73,1.18-2.73C55.43,49.1,55.81,50.33,55.81,51.83Z" fill="#fff" stroke="#020202" stroke-miterlimit="10" stroke-width="0.75"/><path id="Eye-2" data-name="Eye" d="M74.27,51.34c0,1.62-.53,1.19-1.18,1.19s-1.18.43-1.18-1.19,0-2.94,1.18-2.94C73.89,48.4,74.27,49.71,74.27,51.34Z" fill="#fff" stroke="#020202" stroke-miterlimit="10" stroke-width="0.75"/><path d="M67.38,45.4s4.5-4.11,6.89-3.95" fill="none" stroke="#020202" stroke-miterlimit="10" stroke-width="0.75"/><path d="M58.62,46.48c-1.88-.85-6.11-3.6-8-3.16" fill="none" stroke="#020202" stroke-miterlimit="10" stroke-width="0.75"/></g><g id="mouth_copy_2" data-name="mouth copy 2"><path d="M58,74.25a14.29,14.29,0,0,1,4.57-.78c1.54.21,4.1,2.22,5.36,2.46" fill="none" stroke="#020202" stroke-miterlimit="10" stroke-width="0.75"/></g><g id="jacket"><path d="M120,125c-.24-5-1.52-8.49-2.79-13-.2-.7-.4-1.4-.58-2.1-1-3.92-1.79-8.11-4.41-11.21-2.07-2.45-5.07-3.91-8.08-5-8.4-3.11-17.55-5-25.61-8.89,0,3.33-1.5,7.37-3,10.34-1.16,2.31-2.41,4.72-4.57,6.11a20.21,20.21,0,0,0-2.68,1.32s.11,1.49.09,2.49q-.08,3.52-.09,7c0,4.7,0,8.3.24,13" fill="#073e75" stroke="#000" stroke-miterlimit="10" stroke-width="0.75"/><path d="M57.86,125.07c.38-7.95.37-14.81.06-22.76a5.72,5.72,0,0,1-1.6-.85,12.33,12.33,0,0,1-2.23-2.33,37.41,37.41,0,0,1-6.54-13.41c-8.28,3.35-23.74,6.81-31.39,10.33-6.73,3.1-8.63,15.3-9.71,29" fill="#073e75" stroke="#000" stroke-miterlimit="10" stroke-width="0.75"/><polyline points="44.88 125 45.1 116.99 24.66 116.85 24.39 125" fill="#073e75" stroke="#000" stroke-miterlimit="10" stroke-width="0.75"/></g><g id="jacket_shearling" data-name="jacket shearling"><line x1="51.33" y1="105.66" x2="51.33" y2="125.07" fill="#60a5c4" stroke="#000" stroke-miterlimit="10" stroke-width="0.75"/><line x1="78.59" y1="105.66" x2="78.59" y2="125.07" fill="#60a5c4" stroke="#000" stroke-miterlimit="10" stroke-width="0.75"/><path d="M61.32,124.93c0-.66-.29-.87-.12-1.75a43.37,43.37,0,0,0,.33-4.48,26.67,26.67,0,0,0-.41-2.8,17.87,17.87,0,0,0,.41-3.11c-.11-.72.21-7.24.15-8.45S59,102.18,58,101.63s-2.63-2.2-3.4-2.59-1.66-.6-1.77-1.16-.67-2-.67-2a6.32,6.32,0,0,1-.7-2.33c0-1-.74-3.89-.74-5.1s-.43-3.21-.26-3.76.5-1.94.5-1.94V77.79a3.69,3.69,0,0,0-1.16,0c-.47.11-.6.75-.61.82s-.66.38-.78.44c-.87.46-1.41.55-1.54,1.6a3.21,3.21,0,0,1-.93,1.87c-.36.35-.82.62-1.16,1a5.21,5.21,0,0,0-.83,1.54,6,6,0,0,0-.12.61c-.19.82-1.22,1.75-1.58,2.6-.15.37-.06.77-.23,1.14s-.51.59-.62,1a10.46,10.46,0,0,0-.2,1.94c0,.71,0,1.42,0,2.12,0,1.16-.1,2.31-.13,3.47,0,.79.16,1.55.22,2.33,0,.6,0,1.19,0,1.78a6.45,6.45,0,0,1,.26,1.55,1.81,1.81,0,0,0-.07.69c.06.26.25.42.29.69s-.07.58,0,.87.17.81,0,1.12c0,0-.71.93-.58,1.49.22.92,1.39,1,2.15,1a27.68,27.68,0,0,0,2.89-.16c.53-.08.71-.74,1.09-1s1.13-.08,1.67-.42a5.76,5.76,0,0,0,.75-.64c.83-.79,1.86-1.74,3.09-1.54a7.39,7.39,0,0,1,1.05.16c.71.24,1,.41,1.76,0l1.16.17a1,1,0,0,1,.6.82c.1.55.07,1.11.21,1.65.19.75-.66,1.36-.29,2.06a16.23,16.23,0,0,0,0,3c.06.47.18.93.23,1.4.11,1-.67,2-.67,3a6.16,6.16,0,0,0,.27,1.66s.06,1.77.28,3.26a11.4,11.4,0,0,1,.16,2.27" fill="#f9f7e1" stroke="#020202" stroke-miterlimit="10" stroke-width="0.75"/><path d="M64.68,124.93a6,6,0,0,0,0-1.75,43.37,43.37,0,0,1-.33-4.48,26.67,26.67,0,0,1,.41-2.8,17.87,17.87,0,0,1-.41-3.11c.34-2.27-.22-4.51,0-6.77s1.74-3.44,3.56-4.39c1-.55,2.63-2.2,3.4-2.59s1.66-.6,1.77-1.16.67-2,.67-2a6.32,6.32,0,0,0,.7-2.33c0-1,.74-3.89.74-5.1s.43-3.21.26-3.76-.5-1.94-.5-1.94V77.79a3.69,3.69,0,0,1,1.16,0c.47.11.6.75.61.82s.66.38.79.44c.86.46,1.4.55,1.53,1.6A3.21,3.21,0,0,0,80,82.52c.36.35.82.62,1.16,1A5.21,5.21,0,0,1,82,85.06a6,6,0,0,1,.12.61c.19.82,1.22,1.75,1.58,2.6.16.37.06.77.23,1.14s.52.59.62,1a10.46,10.46,0,0,1,.2,1.94c0,.71,0,1.42,0,2.12,0,1.16.1,2.31.13,3.47,0,.79-.16,1.55-.22,2.33-.09,1.23.19,2.45.08,3.67-.1,1-.83,2-.11,2.93a6.07,6.07,0,0,1-.05,1.48c-.21.92-.76,1-1.53,1a23.12,23.12,0,0,1-2.89-.16c-.53-.07-.71-.73-1.09-1s-1.48,0-2-.33c-.27-.18-.43-.54-.74-.64-4-1.25-7.06-.1-7.88,1.22-.4.66.66,1.36.29,2.06a16.23,16.23,0,0,1,0,3c-.06.47-.18.93-.23,1.4-.11,1,.67,2,.67,3a6.16,6.16,0,0,1-.27,1.66s-.06,1.77-.28,3.26a6.77,6.77,0,0,0,0,2.27" fill="#f9f7e1" stroke="#020202" stroke-miterlimit="10" stroke-width="0.75"/></g><circle id="button" cx="73.63" cy="118.45" r="2.36" fill="#e8e9ea" stroke="#000" stroke-miterlimit="10" stroke-width="0.75"/><g id="stubble"><line x1="50.42" y1="67.73" x2="50.42" y2="68.35" fill="#60a5c4" stroke="#000" stroke-miterlimit="10" stroke-width="0.75"/><line x1="48.2" y1="62.29" x2="48.2" y2="62.92" fill="#60a5c4" stroke="#000" stroke-miterlimit="10" stroke-width="0.75"/><line x1="49.55" y1="71.26" x2="49.55" y2="71.89" fill="#60a5c4" stroke="#000" stroke-miterlimit="10" stroke-width="0.75"/><line x1="55.21" y1="68.67" x2="55.21" y2="69.3" fill="#60a5c4" stroke="#000" stroke-miterlimit="10" stroke-width="0.75"/><line x1="52.32" y1="73.22" x2="52.32" y2="73.85" fill="#60a5c4" stroke="#000" stroke-miterlimit="10" stroke-width="0.75"/><line x1="53.15" y1="63.27" x2="53.15" y2="63.89" fill="#60a5c4" stroke="#000" stroke-miterlimit="10" stroke-width="0.75"/><line x1="70.83" y1="63.27" x2="70.83" y2="63.89" fill="#60a5c4" stroke="#000" stroke-miterlimit="10" stroke-width="0.75"/><line x1="75.32" y1="62.95" x2="75.32" y2="63.58" fill="#60a5c4" stroke="#000" stroke-miterlimit="10" stroke-width="0.75"/><line x1="69.81" y1="68.06" x2="69.81" y2="68.69" fill="#60a5c4" stroke="#000" stroke-miterlimit="10" stroke-width="0.75"/><line x1="66.83" y1="70.21" x2="66.83" y2="70.84" fill="#60a5c4" stroke="#000" stroke-miterlimit="10" stroke-width="0.75"/><line x1="65.69" y1="80.29" x2="65.69" y2="80.92" fill="#60a5c4" stroke="#000" stroke-miterlimit="10" stroke-width="0.75"/><line x1="59.39" y1="81.22" x2="59.39" y2="81.85" fill="#60a5c4" stroke="#000" stroke-miterlimit="10" stroke-width="0.75"/><line x1="61.27" y1="78.73" x2="61.27" y2="79.36" fill="#60a5c4" stroke="#000" stroke-miterlimit="10" stroke-width="0.75"/><line x1="74.07" y1="70.28" x2="74.07" y2="70.9" fill="#60a5c4" stroke="#000" stroke-miterlimit="10" stroke-width="0.75"/><line x1="77.24" y1="68.35" x2="77.24" y2="68.98" fill="#60a5c4" stroke="#000" stroke-miterlimit="10" stroke-width="0.75"/></g><g id="cigarette_copy" data-name="cigarette copy"><path id="cigarette-2" data-name="cigarette" d="M32.37,57.38S26,54,27.74,49.92s8.18-10.24,6.89-5.61S28,54.26,24.11,51,19,37.87,20.8,35.82" fill="none" stroke="#000" stroke-miterlimit="10" stroke-width="0.75"/><path d="M58.22,74.33,50.65,83.5s-.65.36.2.84l1.44.84,1.34-1.52c1-1.15,2.33-2.74,3.35-3.9s2.11-2.37,3.13-3.52c.38-.44.62-.87,1-1.3l.54-.62a3.35,3.35,0,0,0,.43-.5.21.21,0,0,0,0-.19c-.1-.18-.64-.06-.79,0l-1.15.1A5.14,5.14,0,0,0,58.22,74.33Z" fill="#fff" stroke="#000" stroke-miterlimit="10" stroke-width="0.75"/></g></g></svg>