<svg xmlns="http://www.w3.org/2000/svg" viewBox="0 0 125 125"><title>3</title><g id="person_4" data-name="person 4"><g id="head-2" data-name="head"><path id="neck" d="M79,86.39S75.72,84.56,75.72,84s-.38-8.23-.38-8.23H50.87s.3,7.55-.26,8.19C49,85.8,45.5,87.14,44.5,89.6c-1.58,3.88,3.67,8.44,6.24,9.54,5.45,2.33,13.14,2.29,19,.91A21.16,21.16,0,0,0,81,93.14C82.71,90.89,83.1,88.59,79,86.39Z" fill="#fce7d4" stroke="#020202" stroke-miterlimit="10" stroke-width="0.75"/><path id="face-2" data-name="face" d="M79.69,59.85s-.5,8.65-.68,9.36a12.13,12.13,0,0,1-1.39,3.36,66.54,66.54,0,0,1-5.18,7.09c-.9,1-2.94,3.88-4,4.2a26.36,26.36,0,0,1-5.52.88c-1.18-.07-5.42-.63-6.36-1.2s-4.14-4.36-6.77-7.89-4-6.37-4.22-7.26-.24-4.08-.24-4.08l-.46.11s-.06.9-.84,1c-1.12.15-1.8-1.26-2.09-2.13-.49-1.45-.28-3-.79-4.48s-2.9-6.49-1-7.77c1.65-1.12,3.12.47,3.66,2a13.29,13.29,0,0,1,.41,1.53l.32-.07s0-2.8,0-4.77c.09-3.66-1-7.75.34-11.28C49.34,26.75,53.61,26.31,64.08,26c9.34-.31,14.58,7.27,15.28,10.74a34.26,34.26,0,0,1,.83,8.44l-.49,9,.3.06a26.12,26.12,0,0,1,1.25-3.12,1.61,1.61,0,0,1,3,1.21c-.27,1-.77,3.9-1,5.06a15.76,15.76,0,0,0,0,2.57c0,.78-.34,3.49-1.48,3.46C81.08,63.35,79.34,63.39,79.69,59.85Z" fill="#fce7d4" stroke="#020202" stroke-miterlimit="10" stroke-width="0.75"/></g><g id="sweater-3" data-name="sweater"><path id="Sweater-4" data-name="Sweater" d="M119.86,125s-2.89-11.74-5.13-16a25.84,25.84,0,0,0-11.88-11.14C97.42,95.39,79,83.66,79,84.33a15,15,0,0,1-3.87,10.88c-3.86,4.14-16.8,5.12-22,2.6-4.75-2.29-6.13-8.45-6.45-9.43s-.7-2.53-.7-2.53S24.67,97,22.35,98.16s-5.75,2.59-8,5.41-6.48,13.68-7.17,16.89A14.82,14.82,0,0,1,5.61,125" fill="#fcfaf7" stroke="#000" stroke-miterlimit="10" stroke-width="0.75"/><path id="Sweater-5" data-name="Sweater" d="M79.05,84.34a1.21,1.21,0,0,0,0,.19c-.11,4.29-1.43,8.87-4.87,11.45a15.87,15.87,0,0,1-6.49,2.53A30.57,30.57,0,0,1,57.41,99,12.33,12.33,0,0,1,50,95.05c-2.33-2.6-3.17-5.93-4-9.24-.09-.34-4.39,1.28-4.47,2.26-.07.78.84,2.21,1.14,2.94,1.24,3.08,2.5,6.4,4.81,8.86A15.94,15.94,0,0,0,57,104.35a41,41,0,0,0,9.33,0c2.79-.26,5.64-.55,8.14-1.92a20.65,20.65,0,0,0,5.68-4.85c2.11-2.45,2.46-5.74,3.17-8.78a3.84,3.84,0,0,0,.13-1.68,2.9,2.9,0,0,0-.91-1.45,6.45,6.45,0,0,0-2.86-1.6.55.55,0,0,0-.52.06A.35.35,0,0,0,79.05,84.34Z" fill="#fcfaf7" stroke="#000" stroke-miterlimit="10" stroke-width="0.75"/><line x1="46.98" y1="89.52" x2="42.96" y2="91.8" fill="#fff" stroke="#000" stroke-miterlimit="10" stroke-width="0.75"/><line x1="48.78" y1="94.33" x2="45.52" y2="97.26" fill="#fcfaf7" stroke="#000" stroke-miterlimit="10" stroke-width="0.75"/><line x1="52.89" y1="97.41" x2="50.61" y2="102.3" fill="#fcfaf7" stroke="#000" stroke-miterlimit="10" stroke-width="0.75"/><line x1="59.91" y1="99.51" x2="59.52" y2="104.58" fill="#fcfaf7" stroke="#000" stroke-miterlimit="10" stroke-width="0.75"/><line x1="66.13" y1="98.82" x2="67.52" y2="104.26" fill="#fcfaf7" stroke="#000" stroke-miterlimit="10" stroke-width="0.75"/><line x1="73.19" y1="96.75" x2="76.08" y2="101.41" fill="#fcfaf7" stroke="#000" stroke-miterlimit="10" stroke-width="0.75"/><line x1="77.12" y1="92.48" x2="81.33" y2="95.79" fill="#fcfaf7" stroke="#000" stroke-miterlimit="10" stroke-width="0.75"/><line x1="79.23" y1="87.49" x2="83.15" y2="89.52" fill="#fcfaf7" stroke="#000" stroke-miterlimit="10" stroke-width="0.75"/><g id="Layer_37" data-name="Layer 37"><path d="M69.14,103.73s2.41,7.1,1.35,9.54a27.74,27.74,0,0,1-3.56,5.44" fill="none" stroke="#000" stroke-miterlimit="10" stroke-width="0.75"/><path d="M55.8,104.26s-3.09,7-1.13,10,7.84,7.26,8,10.69" fill="none" stroke="#000" stroke-miterlimit="10" stroke-width="0.75"/><path d="M63.2,104.62S61.6,109,63,112.54a18.49,18.49,0,0,0,4,6.17c1.95,2.14,3.32,2.89,3.83,6.29" fill="none" stroke="#000" stroke-miterlimit="10" stroke-width="0.75"/><path d="M62.66,106.36a15.07,15.07,0,0,1,1.06,3.85,5.49,5.49,0,0,1-.53,2.91" fill="none" stroke="#000" stroke-miterlimit="10" stroke-width="0.75"/><path d="M59.2,119.57A8.2,8.2,0,0,0,55.57,125" fill="none" stroke="#000" stroke-miterlimit="10" stroke-width="0.75"/></g></g><g id="hair-2" data-name="hair"><path d="M49.52,26.59s1.58-6.72,5.37-8.81c4.66-2.57,8.93-1,13.12,1.14a36.87,36.87,0,0,1,9.21,6.55c3.07,2.76,6.84,7.52,7,8.34a7.38,7.38,0,0,1,0,2.66c-.1.51-1.1,1.28-1.1,1.28s.65,5.46-.72,7.78c-1.84,3.12-1.94,7.62-2.25,8.75s-.71.71-.71.57.08-9.48-.26-10.6S78,42,78.45,41.07A14.26,14.26,0,0,0,79,37.8S74.82,34.68,73.9,34s-4.15-2.43-5.73-2.48a14.47,14.47,0,0,0-5,.61c-1.79.56-2.18,1.69-2.69,1.64s-2.94-2-6.16-2.05-5-.05-6.29,1.33-2.61,2.82-2.41,5.32.11,3.13,0,3.59a9.8,9.8,0,0,0-.8,2.71c0,1,.11,10.23,0,10.54s-.46-.1-.71-1-.67-5.32-.77-6.19-2.41-6-2.56-8.4-.82-5.42.36-8.44S43.4,26.72,44.38,26,48.6,26,49.52,26.59Z" fill="#f99c16" stroke="#000" stroke-miterlimit="10" stroke-width="0.75"/></g><path id="mustache" d="M63.3,65.63a.79.79,0,0,0,.38-.13,3.32,3.32,0,0,1,1.79-.59,2.5,2.5,0,0,1,1.16.58c1.13.91,5.14,4.82,6.7,2.9.64-.77.61-3.26.84-4.24.07-.31.22-1.11.54-.91s.18.83.19,1.05c0,.48,0,2.35.07,2.82a5.75,5.75,0,0,1-.4,2.8c-1.8,3.46-6.42,2.17-8.9.79a8,8,0,0,1-2.55-3,10.19,10.19,0,0,1-3.55,2.74,12,12,0,0,1-4.44,1.24,3.57,3.57,0,0,1-3.14-1c-.78-1-.61-2.65-.49-3.88a27.24,27.24,0,0,1,.78-4.71c.15-.39.26-.08.28.22.15,2.15-.88,7.05,2.4,6.09A6.57,6.57,0,0,0,58,66.51c.81-.84,1.89-1.84,3.09-1.8a4,4,0,0,1,1.79.77A.78.78,0,0,0,63.3,65.63Z" fill="#f99c16" stroke="#000" stroke-miterlimit="10" stroke-width="0.75"/><g id="nose-3" data-name="nose"><path d="M64.83,53.93c1.51,3.55,3.24,5.37,4,9.18.15.8.14,3.69-.3,4.45-.73,1.27-2.35.93-3.4.57-.79-.28-1.32-1.12-2.44-1.57-.13,0-1,.54-1.17.56a1.4,1.4,0,0,1-1.12-.27c-.88-.74-.37-2,.27-2.72" fill="#fce7d4" stroke="#020202" stroke-miterlimit="10" stroke-width="0.75"/></g><g id="hat"><path d="M43,28.79s.75-6.18,3.6-8.79,3.87-4.63,6.83-5.83a21.7,21.7,0,0,1,7.95-1.81c2.24,0,7.23,1.41,11,3a13.24,13.24,0,0,1,7.34,7.12,41.42,41.42,0,0,1,2,7.26C82,31.25,43.25,30.75,43,28.79Z" fill="#286308" stroke="#020202" stroke-miterlimit="10" stroke-width="0.75"/><path d="M41.42,44.82s-1.75-3.82.74-5.63,8.41-6,17-5.42,10.19-1.18,16.3,1.72S84,42.21,83.79,43s1.79-4.59,1.4-7.52-.18-4.34-5.07-8a25.9,25.9,0,0,0-16.1-5c-5.3.2-11.48-.25-14.81,1.88s-7.84,4.75-8.44,7.77S38.59,42.41,41.42,44.82Z" fill="#286308" stroke="#020202" stroke-miterlimit="10" stroke-width="0.75"/></g><path id="forehead_wrinkle" data-name="forehead wrinkle" d="M53.67,38s4,2.1,6.55,2.1c1.63,0,2.38-2.53,4.18-3,2.22-.57,6.53.79,7.29,1.3" fill="none" stroke="#020202" stroke-miterlimit="10" stroke-width="0.75"/><g id="eyes-3" data-name="eyes"><path d="M74.12,46a20.37,20.37,0,0,1,5.73.78A35.5,35.5,0,0,1,78,53.88a22.4,22.4,0,0,1-5.2.68c-.41,0-1.06,0-1.83,0a11.15,11.15,0,0,1-3.87-.41c-.69-.52-2.59-5.12-3-6.57a30.63,30.63,0,0,1,8.29-1.55c.57,0,1.14-.06,1.7-.06m0-.75c-.56,0-1.14,0-1.75.06-4.89.37-9.07,1.48-9.07,2s2.45,6.94,3.47,7.49a11.94,11.94,0,0,0,4.24.51c.68,0,1.33,0,1.86,0,1.84-.09,5.47-.41,5.78-1s2.07-6.06,2-8.09a19.71,19.71,0,0,0-6.49-1Z"/><path d="M50.72,45.27V46c.57,0,1.14,0,1.7.06a30.73,30.73,0,0,1,8.3,1.55c-.42,1.45-2.32,6-3,6.56a10.93,10.93,0,0,1-3.88.42c-.78,0-1.42,0-1.83,0h-.2a25.52,25.52,0,0,1-4.73-.5A35.7,35.7,0,0,1,45,46.79,21,21,0,0,1,50.72,46v-.75m0,0a19.78,19.78,0,0,0-6.49,1c-.1,2,1.94,7.7,2.25,8.26s3.66.7,5.49.79c.53,0,1.18,0,1.87,0a11.94,11.94,0,0,0,4.24-.51c1-.55,3.46-6.93,3.46-7.49s-4.17-1.66-9.06-2c-.61,0-1.2-.06-1.76-.06Z"/><path d="M60.22,49.5s2.67-1,4.7,0" fill="none" stroke="#000" stroke-miterlimit="10" stroke-width="0.75"/><path id="Eye" d="M56.05,51.26c0,1.51-.54,1.13-1.19,1.13s-1.19.38-1.19-1.13,0-2.75,1.19-2.75C55.66,48.51,56.05,49.74,56.05,51.26Z" fill="#fff" stroke="#020202" stroke-miterlimit="10" stroke-width="0.75"/><path id="Eye-2" data-name="Eye" d="M74.64,50.76c0,1.63-.54,1.2-1.19,1.2s-1.19.43-1.19-1.2,0-3,1.19-3C74.26,47.8,74.64,49.12,74.64,50.76Z" fill="#fff" stroke="#020202" stroke-miterlimit="10" stroke-width="0.75"/><path d="M67.7,44.78s4.53-4.14,6.94-4" fill="none" stroke="#020202" stroke-miterlimit="10" stroke-width="0.75"/><path d="M58.88,45.87C57,45,52.72,42.24,50.8,42.68" fill="none" stroke="#020202" stroke-miterlimit="10" stroke-width="0.75"/></g><g id="suspenders"><polyline points="31.62 125 31.62 93.77 38.14 90.51 38.14 125" fill="#f44711" stroke="#020202" stroke-miterlimit="10" stroke-width="0.75"/><polyline points="90.16 125 90.16 91.22 96.68 95.33 96.68 125" fill="#f44711" stroke="#020202" stroke-miterlimit="10" stroke-width="0.75"/></g><g id="beard-2" data-name="beard"><path d="M45.06,59.88s1.16,9.47,4.56,12.88,4.74,6.06,7.11,6.07,2.82-1.84,4.81-2.27c3.32-.72,3.3,2.27,6.29,2.27,2.36,0,8.58-5.92,9.76-8.88s2.07-10.07,2.07-10.07S80,69,79.84,71.7s-1.42,13.1-4.08,15.91S66.52,93.23,61,93.23,49.19,90.13,47.12,86s-1.4-7-2-11.42C44.6,70.39,45.06,59.88,45.06,59.88Z" fill="#f99c16" stroke="#000" stroke-miterlimit="10" stroke-width="0.75"/></g><g id="mouth"><path d="M58.23,73.84a14.39,14.39,0,0,1,4.6-.79c1.55.22,4.13,2.23,5.4,2.48" fill="none" stroke="#020202" stroke-miterlimit="10" stroke-width="0.75"/></g><g id="cigarette"><path id="cigarette-2" data-name="cigarette" d="M32.44,56.85s-6.37-3.37-4.67-7.52S36,39,34.71,43.68s-6.7,10-10.59,6.7S18.94,37.2,20.79,35.13" fill="none" stroke="#000" stroke-miterlimit="10" stroke-width="0.75"/><path d="M58.47,73.92l-7.62,9.23s-.65.36.2.85,1.45.85,1.45.85l1.35-1.54c1-1.16,2.35-2.76,3.37-3.92l3.16-3.56c.38-.43.62-.86,1-1.3l.55-.63a3.43,3.43,0,0,0,.43-.5.21.21,0,0,0,0-.19c-.1-.18-.64-.06-.8,0l-1.15.1A5.07,5.07,0,0,0,58.47,73.92Z" fill="#fff" stroke="#000" stroke-miterlimit="10" stroke-width="0.75"/></g></g></svg>