<svg xmlns="http://www.w3.org/2000/svg" viewBox="0 0 125 125"><title>Artboard 25 copy</title><g id="person_17" data-name="person 17"><path d="M48.07,79.06c1.23-.53,3.71-3.51,3.71-3.51A57.08,57.08,0,0,0,53.51,68c.27-2.65.66-9.91.66-9.91l25.21,1.18s0,7.11,0,7.85a69.19,69.19,0,0,0,.44,8,11.92,11.92,0,0,0,2.69,7.19,24.31,24.31,0,0,0,3.85,3.3s4.42,2.32,5.61,3.12a36.56,36.56,0,0,0,3.41,1.85s3.45,7.39-.77,13.46-18.58,7.93-27.38,6S37,95.68,40,89.73,43.47,81.07,48.07,79.06Z" fill="#fce7d4" stroke="#020202" stroke-miterlimit="10" stroke-width="0.75"/><g id="turtleneck"><path d="M118,125.55c-.22,0-1.38-11.38-1.68-12.81a62.42,62.42,0,0,0-2.06-7.54c-1.9-5.47-4.92-10.85-9.82-13.07a101.46,101.46,0,0,1-9.42-4.48c-2.39-1.27-4.53-2.7-6.92-4-1.19-.64-1.7-1.12-2.89-1.75-.58-.31-1.23-.44-1.8-.78s-1.06-2.08-1.51-2.51a6.09,6.09,0,0,1-2.17-3.91c-.11-.46-.36-2-.42-2.57,0-.22-.38-10.42-.2-9L49.63,59.21S50,72.27,50,72.34c0,.91-.77,2-.59,2.87A4.76,4.76,0,0,1,49,77.78c-.54,1.54-2.63,1.69-3.88,2.57s-1.46,2.3-3,2.94-3.05,1.44-4.56,2.17c-6.67,3.21-7.83,3.46-14.48,6.7-.26.13-.53.29-.8.4-2.71,1.33-6.72,3-9.34,6.31s-4.34,17.95-5.15,21.7-1.13,5-1.13,5" fill="#f44711" stroke="#020202" stroke-miterlimit="10" stroke-width="0.75"/></g><path d="M87.69,43.68s-.26-2.23-.28-2.34c-.24-.52-.26-1-.46-1.54a4,4,0,0,1-.24-.57c-.28-1.43-.74-2.78-1-4.2s-.56-2.66-.87-4c-.92-3.86-2.38-8.56-5.36-11.44-1.9-1.85-4.61-2.46-7.18-2.58a27.18,27.18,0,0,0-13.57,2.44,27.37,27.37,0,0,0-9.54,8c-2.71,3.64-2.54,8-2,12.33a61.7,61.7,0,0,0,2,9.49c1.26,4.24,5.93,15.05,5.93,15.05C59,69.86,65.45,75.79,70.57,74.61c2.77-.63,5.19-2.75,7.15-4.68,2.16-2.1,4.45-4.35,5.66-7.16a47.4,47.4,0,0,0,2.5-7.7,42.39,42.39,0,0,0,1-5.71c.1-1,.8-1.56.79-2.53,0-.66.25-.68.22-1.34a6,6,0,0,0-.14-.93c0-.15-.07-.3-.1-.45A2.39,2.39,0,0,1,87.69,43.68Z" fill="#e8d5aa" stroke="#020202" stroke-miterlimit="10" stroke-width="0.75"/><path d="M75.17,50.07c.48.8.85,1.47.19,2.36a3.51,3.51,0,0,1-3.5,1.15,8.29,8.29,0,0,0-2-.29,3.74,3.74,0,0,1-1.58-.16c-.39-.3-.39-1.1.09-1.25" fill="none" stroke="#231f20" stroke-miterlimit="10" stroke-width="0.75"/><path d="M79.68,73.69,88.92,80s4.81-19.78,4.85-28c.06-11.42-4.4-22-9.8-30.65s-10.31-8-11.65-8.17-2.48-.81-3.79-.87c-7.36-.33-15.34.86-20.29,5.77-4.7,4.66-10.51,14.52-10.81,21.31-.07,1.62-.11,3.24-.1,4.87a95.18,95.18,0,0,0,1.12,15.89c.43,2.73,3.66,10.64,5.51,12.86l.28.34a21.16,21.16,0,0,0,3.51,3.24c1.54,1.18,3.15,2.3,4.75,3.4l3.64,2.44c1,.66,1.92,1.44,2.94,2.08S61.25,85.8,60.7,84c-3-9.8-14.44-40.45-.88-52.74A78.44,78.44,0,0,0,71.1,17.62a7.31,7.31,0,0,1,5.17.06,9.89,9.89,0,0,1,4,3.27,23.72,23.72,0,0,1,3,5.27,47.18,47.18,0,0,1,2,6.05c.5,1.84.91,3.72,1.25,5.6a40.89,40.89,0,0,1,1,4.49,28.77,28.77,0,0,1-.55,5.79c-.27,1.88-.73,3.73-1.13,5.58C84.56,59.35,84,62,83,63.56a58.87,58.87,0,0,1-3.7,4.81S79.51,73.18,79.68,73.69Z" fill="#262626" stroke="#020202" stroke-miterlimit="10" stroke-width="0.75"/><path d="M75.38,33.91s3.18-1.74,4.73-1.78,3.37,1.73,3.87,2.39" fill="none" stroke="#020202" stroke-miterlimit="10" stroke-width="0.75"/><path d="M65.8,64.4c2.1.59,5-1.81,5.27-2.86s-4-.49-6.06-1.08-3.2-3.22-3.49-2.18S63.7,63.82,65.8,64.4Z" fill="#fff" stroke="#020202" stroke-miterlimit="10" stroke-width="0.75"/><circle cx="79.3" cy="40.07" r="1.22" fill="#fff" stroke="#020202" stroke-miterlimit="10" stroke-width="0.75"/><circle cx="61.06" cy="40.3" r="1.22" fill="#fff" stroke="#020202" stroke-miterlimit="10" stroke-width="0.75"/><path d="M75.82,40.42s2.71-2.9,4.19-2.89,2.19.89,3,.68" fill="none" stroke="#020202" stroke-miterlimit="10" stroke-width="0.75"/><path d="M64.2,39.92a5.69,5.69,0,0,0-2.63-1.76c-.91-.37-2.38-.16-4.66,1.11" fill="none" stroke="#020202" stroke-miterlimit="10" stroke-width="0.75"/><path d="M65,34s-2.24-3-4.26-3.6" fill="none" stroke="#020202" stroke-miterlimit="10" stroke-width="0.75"/><path d="M52.47,42.56a7.6,7.6,0,0,0,15.2,0c0-4.06,1.14-7.35-7.6-7.35C52.94,35.21,52.47,38.5,52.47,42.56Z" fill="none" stroke="#020202" stroke-miterlimit="10" stroke-width="0.75"/><path d="M88.25,42.42a7.47,7.47,0,0,1-14.93,0c0-4-1.11-7.21,7.47-7.21C87.79,35.21,88.25,38.44,88.25,42.42Z" fill="none" stroke="#020202" stroke-miterlimit="10" stroke-width="0.75"/><path d="M73.62,41.17s-3.53-1.71-5.9,0" fill="none" stroke="#020202" stroke-miterlimit="10" stroke-width="0.75"/></g></svg>