<svg xmlns="http://www.w3.org/2000/svg" viewBox="0 0 125 125"><title>Artboard 10</title><g id="person_5" data-name="person 5"><g id="turtleneck"><path d="M115.44,109.83a26.55,26.55,0,0,0-12.21-11.45c-4.62-2.09-9.13-4.41-13.6-6.79-2.11-1.11-4.21-2.25-6.31-3.38-1-.56-1.5-1-2.55-1.54-.51-.27-1.08-.38-1.58-.68s-.94-1.83-1.33-2.21c-1.28-1.22-2.25-1.88-2.62-3.52-.09-.4.18-1.48.12-2,0-.19-.12-5,0-3.74l-26.08-.21s.44,3.85.44,3.92c0,.8-.69,1.74-.53,2.52A4.22,4.22,0,0,1,48.86,83c-.48,1.36-2.32,1.48-3.42,2.26s-1.28,2-2.65,2.59-2.69,1.27-4,1.91c-5.87,2.83-11.72,5.7-17.57,8.55-.23.12-.47.25-.71.35-9.63,3.86-12.57,13.54-14.6,22.92-.71,3.3-1,4.39-1,4.39l115.4-.26S117.74,114.21,115.44,109.83Z" fill="#020202" stroke="#020202" stroke-miterlimit="10" stroke-width="0.75"/></g><path id="head-3" data-name="head" d="M83.76,49.35s1.62-10.87,1.47-13.06c-.24-3.43-.84-6.95-2.92-9.77-3.71-5-9.63-9.34-15.88-10.36S53.93,17,48.7,20.31c-.91.58-1.8,1.2-2.66,1.86C39.88,27,36.73,32,38.24,39.92S40,48.19,40,48.19s-.48-3.62-2.25-4.87-4-1.76-5,.75a7.88,7.88,0,0,0,.88,7.29c1.38,2.14,2.77,7.42,3.14,8.81s2,2.64,3,3.27a2.9,2.9,0,0,0,2.39,0s.38,4.4,1.64,6.16c3.81,5.34,10.34,11.27,17.1,11.65,6.6.37,11.58-3.74,16-8.13.63-.63,4-3.9,4.4-4.91a32.36,32.36,0,0,0,.5-5.28s1.76,1.51,2.52.88,2.13-.88,2.76-2.13.38-4.41,1.26-5.79,2.14-2.39,2.89-4.4,1.39-4.9,0-7a3.11,3.11,0,0,0-4.4-.88A17.84,17.84,0,0,0,83.76,49.35Z" fill="#e8d5aa" stroke="#020202" stroke-miterlimit="10" stroke-width="0.75"/><path id="nose-4" data-name="nose" d="M65.88,51.23c1-.11,1.68-.63,2.33.48s1.44,3.23.73,4.54S65.4,59.37,63.4,57.5l-2-1.87s-1.6,1.71-2.41.47a1.76,1.76,0,0,1,0-2.34c.28-.31,1.06-.16,1.06-.16" fill="#e8d5aa" stroke="#020202" stroke-miterlimit="10" stroke-width="0.75"/><g id="hair-3" data-name="hair"><path d="M56.56,25.69S58.1,14.75,61.26,14" fill="#020202"/><path d="M62.5,25.69S64,14.75,67.19,14" fill="#020202"/><path d="M40.33,49.89c1.66-2.08,1.35-5.08.71-7.67-1-4-2.56-8-2.33-12.16,0,.46-5.27,3.6-5.82,4.2a2.56,2.56,0,0,0-.63.93,2.62,2.62,0,0,0,0,1.36c.7,2.92,2.91,5.18,4.7,7.59A30,30,0,0,1,40.33,49.89Z" fill="#020202"/><path d="M83.8,49.92c-1.76-2-1.57-5-1-7.63C83.58,38.22,85,34.16,84.57,30c.05.46,5.42,3.38,6,3.95a2.72,2.72,0,0,1,.67.91,2.61,2.61,0,0,1,0,1.36c-.57,2.94-2.69,5.3-4.37,7.78A29.28,29.28,0,0,0,83.8,49.92Z" fill="#020202"/></g><g id="glasses"><circle cx="53.13" cy="42.27" r="5.44" fill="#fff" stroke="#020202" stroke-miterlimit="10" stroke-width="0.75"/><circle cx="71.76" cy="42.27" r="5.44" fill="#fff" stroke="#020202" stroke-miterlimit="10" stroke-width="0.75"/><path d="M66.32,42.27a6.6,6.6,0,0,0-3.88-1.61,6.21,6.21,0,0,0-3.87,1.61" fill="none" stroke="#020202" stroke-miterlimit="10" stroke-width="0.75"/></g><g id="mouth-2" data-name="mouth"><path d="M58.57,58.66S53.9,61.65,53,63s-2,5.86-.84,7" fill="#e8d5aa" stroke="#020202" stroke-miterlimit="10" stroke-width="0.75"/><path d="M71.28,58.66s2.2,3,3.71,4.68.89,5.87-.43,6.63" fill="#e8d5aa" stroke="#020202" stroke-miterlimit="10" stroke-width="0.75"/><line x1="59.24" y1="65.9" x2="67.19" y2="65.9" fill="#fff" stroke="#020202" stroke-miterlimit="10" stroke-width="0.75"/><path d="M60.8,73.88s3.91-1.21,5.94,0" fill="none" stroke="#020202" stroke-miterlimit="10" stroke-width="0.75"/></g></g></svg>