<svg xmlns="http://www.w3.org/2000/svg" viewBox="0 0 125 124.47"><title>Artboard 54 copy</title><g id="Layer_150" data-name="Layer 150"><path id="neck-2" data-name="neck" d="M77.36,81.18s-.65-.29-.65-.86v-6.5l-25.3,1.26s.28,7.71-.3,8.37c0,0-1.51,1.86-.64,3.69s6.83,5.7,10.91,6.33,14.18-.22,16-2.55S80.87,82.31,77.36,81.18Z" fill="#a56621" stroke="#000" stroke-miterlimit="10" stroke-width="0.75"/><path id="face-2" data-name="face" d="M81.21,57.35S80.69,66.3,80.5,67a12.27,12.27,0,0,1-1.43,3.47,66.66,66.66,0,0,1-5.36,7.33c-.93,1-3,4-4.18,4.35a27.32,27.32,0,0,1-5.7.91c-1.22-.07-5.61-.65-6.57-1.24s-4.28-4.52-7-8.16-4.16-6.59-4.35-7.51A40.55,40.55,0,0,1,45.64,62l-.47.12s-.06.93-.87,1c-1.16.15-1.86-1.31-2.16-2.21-.5-1.5-.29-3.14-.82-4.63s-3-6.71-1-8c1.71-1.16,3.23.48,3.78,2a13.7,13.7,0,0,1,.43,1.59l.33-.08s0-2.89,0-4.93c.09-3.78-1.07-8,.35-11.66,4.67-12.07,9.08-12.52,19.9-12.88,9.66-.31,15.07,7.52,15.8,11.11a35.11,35.11,0,0,1,.85,8.73c-.14,2.66-.5,9.28-.5,9.28l.31.07a28.78,28.78,0,0,1,1.29-3.24,1.67,1.67,0,0,1,3.1,1.26c-.29,1-.8,4-1,5.23a15.75,15.75,0,0,0,0,2.66c0,.8-.35,3.6-1.53,3.57C82.64,61,80.84,61,81.21,57.35Z" fill="#a56621" stroke="#000" stroke-miterlimit="10" stroke-width="0.75"/><rect x="50.66" y="88.54" width="28.63" height="26.45" fill="#d7f6f9" stroke="#020202" stroke-miterlimit="10" stroke-width="0.75"/><path id="Collar-2" data-name="Collar" d="M48.18,83.92A6.37,6.37,0,0,0,48.84,82a7,7,0,0,1,.68-2.44c.38-.41,1.59-.49,1.59-.49s-1,1.46-.44,2A23.34,23.34,0,0,0,54.47,84c1.53.91,8.18,4.34,8.89,4.67s-.09.5-.5.53a8.8,8.8,0,0,0-4,1.77c-1,1.08-7.51,7.62-7.51,7.62S47.67,84.43,48.18,83.92Z" fill="#d7f6f9" stroke="#020202" stroke-miterlimit="10" stroke-width="0.75"/><path id="collar-3" data-name="collar" d="M77.1,78.75s.74-.34.92.3.38,1.93.45,2.27a21.07,21.07,0,0,0,2.78,2.38l-2.91,14s-6.44-4.71-8.89-6S63.68,89,63.83,88.8,76.5,82.16,77.1,79.43a.81.81,0,0,0,0-.38Z" fill="#d7f6f9" stroke="#020202" stroke-miterlimit="10" stroke-width="0.75"/><path d="M59.29,106.7s1-4.87,1.36-6.2c.28-1,1.22-4.67,1.18-5s1.72-.34,2.34-.39c1.18-.09,2.19,0,2.42.69A51.16,51.16,0,0,1,67.8,101c.23,1.58,1.55,9.43,1.61,9.88s1.08,3.15.86,3.53-4,.69-5.18.41-6.37.2-6.21-.37S59.25,107,59.29,106.7Z" fill="#202133" stroke="#000" stroke-miterlimit="10" stroke-width="0.75"/><path d="M68.14,91a.72.72,0,0,1-.17.42,12,12,0,0,1-1,1.22,1.34,1.34,0,0,0-.44,1,3.2,3.2,0,0,0,.26.6c.08.21.08.49-.12.6a.6.6,0,0,1-.23.06,26.35,26.35,0,0,1-4.7.09.65.65,0,0,1-.31-.08c-.26-.16-.16-.56,0-.82s.38-.55.28-.84a.94.94,0,0,0-.37-.37c-.54-.35-1.16-.44-1.69-.79a2.08,2.08,0,0,1-.6-.54c-.64-1,3.94-2.79,4.81-2.79,1.23,0,1.76.62,2.59,1a10.38,10.38,0,0,1,1.3.74C68,90.73,68.13,90.85,68.14,91Z" fill="#202133" stroke="#000" stroke-miterlimit="10" stroke-width="0.75"/><path d="M46.06,47.6s-1.22,5.84-1.87,4.22-.57-2.6-1.14-3.81-2.27-4.55-2.11-5.12a66.26,66.26,0,0,0,0-7c-.07-2.11-.55-6.66.34-8.52a20.8,20.8,0,0,1,3.81-4.95c.41-.25,1.3-.73,1.3-.73a5.37,5.37,0,0,1,2.52-4.55c2.67-1.7,9.25-5,16.14-5.2S78,18.39,79.41,20.26a10.08,10.08,0,0,1,1.84,3.91,19.56,19.56,0,0,1,1.07,3.16c.08.78.6,2.9.6,3-.14,2.67,1.43,2.79,1.43,7v4.39a32.09,32.09,0,0,1-.89,5c-.49,1.3-.91,3.88-1.72,4.2s-1.12.2-1.12.2c.12-2.84.38-5.68.36-8.53s-.08-4.49-2.22-6.42a6.28,6.28,0,0,0-4.63-1.38c-2.43.08-6.59,1.62-8-.24s.59-3.9-2-4.22c-2.3-.29-4.72.46-7,.55-1.41.06-3.93,0-5.14-.88l-.65-.48A13,13,0,0,1,50,32.75a9.78,9.78,0,0,0-1.3,3.82c-.24,1.46-1.38,1.68-1.94,3S46.46,45.89,46.06,47.6Z" fill="#23211b" stroke="#000" stroke-miterlimit="10" stroke-width="0.75"/><path id="Eye" d="M58.27,47.93c0,1.33-.55,2.41-1.23,2.41s-1.23-1.08-1.23-2.41,0-2.41,1.23-2.41C57.88,45.52,58.27,46.6,58.27,47.93Z" fill="#fff" stroke="#020202" stroke-miterlimit="10" stroke-width="0.75"/><path id="Eye-2" data-name="Eye" d="M74.08,47.49c0,1.44-.55,2.6-1.22,2.6s-1.23-1.16-1.23-2.6,0-2.6,1.23-2.6C73.69,44.89,74.08,46.06,74.08,47.49Z" fill="#fff" stroke="#020202" stroke-miterlimit="10" stroke-width="0.75"/><path id="eyebrow" d="M67.78,40.82s1.91-1.9,3.81-1.9,2.85,1.9,4.75,2.85" fill="none" stroke="#020202" stroke-miterlimit="10" stroke-width="0.75"/><path id="eyebrow-2" data-name="eyebrow" d="M62.08,41.77a11.71,11.71,0,0,0-2.86-1.9,4.48,4.48,0,0,0-5.7,1c-1.91,1.9-1.91,1.9-2.86,1.9" fill="none" stroke="#020202" stroke-miterlimit="10" stroke-width="0.75"/><path d="M65.85,51.24s2,7.92,2.1,8.62,1.12,3.28.8,3.68-.33,1.42-1.06,1.58A15.28,15.28,0,0,1,64.94,65a4.14,4.14,0,0,1-1.39-.49s-1.1.31-1.45.12a1.68,1.68,0,0,1-.71-1.25,5.14,5.14,0,0,1,.88-1.36" fill="none" stroke="#020202" stroke-miterlimit="10" stroke-width="0.75"/><path id="Sweater-4" data-name="Sweater" d="M122,124.21s-2.42-10.94-4.73-15.35A26.76,26.76,0,0,0,105,97.34c-5.62-2.54-24.68-14.67-24.69-14S78,97.59,73.41,104.1s-8.55,9.13-9.15,9.13-7.12-5-9.74-10.38-5.28-15.3-5.62-16.31-.72-2.62-.72-2.62S24.2,96.48,21.8,97.66s-6,2.68-8.27,5.59-6.7,14.15-7.42,17.46-.71,3.58-.71,3.58" fill="#f7de48" stroke="#020202" stroke-miterlimit="10" stroke-width="0.75"/><path id="mouth-4" data-name="mouth" d="M55.52,65.56a4.37,4.37,0,0,1,2.3,1.74,8.31,8.31,0,0,0,4.28,2.86c2.4.62,3.52.82,3.27,2s-2.09,1.66-3.27,2.16a7.79,7.79,0,0,1-5.69-.93,4.79,4.79,0,0,1-2.18-3.36C53.79,68.32,54.12,64.84,55.52,65.56Z" fill="#fff" stroke="#020202" stroke-miterlimit="10" stroke-width="0.75"/><path d="M71.57,9.17s8.62,4.26,9.68,6.26,2.3,7.36,2.56,11.57c.25,3.88.67,12.61.67,13s-3.94-4.26-5.68-6.1c-1.45-1.52-6.64-5.82-7.17-9.84S70.23,9.75,71.57,9.17Z" fill="#af1804" stroke="#020202" stroke-miterlimit="10" stroke-width="0.75"/><path id="front_of_hat" data-name="front of hat" d="M40.45,29s.13-6.63,0-9.39c-.23-4.84,3.85-7,7.79-8.72,2.68-1.14,7.31-4.24,10.28-4,1.46.12,11.41.93,13,2.32,4.77,4.06,4.62,10.7,5.43,17.88a45.94,45.94,0,0,1,0,6Z" fill="#af1804" stroke="#020202" stroke-miterlimit="10" stroke-width="0.75"/><path d="M58.49,16.13v4.78a6.35,6.35,0,0,1-.18,1.81,1.75,1.75,0,0,1-.88.94,3.33,3.33,0,0,1-1.69.4,2.24,2.24,0,0,1-1.07-.22.72.72,0,0,1-.41-.64.61.61,0,0,1,.22-.49.69.69,0,0,1,.51-.2.7.7,0,0,1,.71.53q.12.36.39.36a.41.41,0,0,0,.4-.3,4.51,4.51,0,0,0,.11-1.24V18a1,1,0,0,0-.14-.6.82.82,0,0,0-.62-.17h-.18v-.63Zm-2.05-3a1,1,0,0,1,.31-.75,1,1,0,0,1,1.48,0,1.06,1.06,0,0,1,0,1.5,1,1,0,0,1-.74.31,1.06,1.06,0,0,1-1.05-1.06Z" fill="#fff" stroke="#fff" stroke-miterlimit="10" stroke-width="0.5"/><path d="M82.77,38.32s-6.28-7.52-11.91-11c-.77-.48-5-4.31-17.77-3.1-7,.66-9.38,1-14.59,3.1-1.66.68-7.72,3.2-8.1,5.42-.14.85,2,1.58,2.64,1.74a33.05,33.05,0,0,0,6.15,1.17,12.35,12.35,0,0,0,1.55,1.6c-.19-1.12-.23-2.17.81-3,1.52-1.16,7.62-2.76,16.35-2.89a77.62,77.62,0,0,1,19.2,2.18C78.77,34.14,82.77,38.32,82.77,38.32Z" fill="#af1804" stroke="#020202" stroke-miterlimit="10" stroke-width="0.75"/></g></svg>