<svg xmlns="http://www.w3.org/2000/svg" viewBox="0 0 125 124.47"><title>Artboard 54 copy 2</title><g id="Layer_151" data-name="Layer 151"><g id="Layer_153" data-name="Layer 153"><path d="M39.26,112.11a9.46,9.46,0,0,1-.75-3,12.22,12.22,0,0,1,.4-3.4,10.83,10.83,0,0,1-.64-2.93,4.5,4.5,0,0,1,.74-2.67,29.26,29.26,0,0,1-1-5.23c-.27-2.77.69-3.32.69-3.32a14.68,14.68,0,0,0-.46-2c-.41-1.47.66-5.2.66-5.2a51.65,51.65,0,0,1-1.46-5.9A9.1,9.1,0,0,1,38,73.76a22.63,22.63,0,0,1-.84-3.63,25,25,0,0,1,.45-6.79,38.35,38.35,0,0,1-.86-4.46,17.46,17.46,0,0,1,0-4.51c.23-1.59.64-2.91.9-4.44C38.2,47,39,44.16,38.82,42c-.32-4.37,4.07-18.29,4.07-18.29a41.44,41.44,0,0,0,12.58-8.83s-.2,6.47-5.88,16.52c-3,5.3-7.26,13.13-7.08,15.85A27.14,27.14,0,0,0,43.33,53c.06.28.63,3.92.67,4a20.71,20.71,0,0,1,.92,3.92A26.81,26.81,0,0,1,44.63,68a9.69,9.69,0,0,1,1,3.52,25,25,0,0,1-.26,6.33,28.3,28.3,0,0,1,1,4.67,14.71,14.71,0,0,1-.73,5.12,10.48,10.48,0,0,1,.17,4.42,16.75,16.75,0,0,1-1,4.19s.25,1,.52,2.71a3.81,3.81,0,0,1-.87,3s.49,1.73.66,2.64-1.27,3.81-1.27,3.81a9.21,9.21,0,0,0-1.42,3.48,6,6,0,0,1,.92,3.51A13.44,13.44,0,0,1,43,118.7a4.43,4.43,0,0,1-1.47,2.44c-.94.77-2.88.8-3.94.77a19.59,19.59,0,0,0,.89-4.66A31.17,31.17,0,0,1,39.26,112.11Z" fill="#262626" stroke="#020202" stroke-miterlimit="10" stroke-width="0.75"/><path d="M45,57s-1.84,1.84-3.08,6.9" fill="none" stroke="#000" stroke-miterlimit="10" stroke-width="0.75"/><path d="M38.62,63.76c.1-.46,2.06,1.76,2.19,1.95.95,1.44,1.53,3.09,2.39,4.58" fill="none" stroke="#000" stroke-miterlimit="10" stroke-width="0.75"/><path d="M44.63,68c-.89,1.32-2,2.24-2.56,3.72s-.63,3.54-1,5.11" fill="none" stroke="#000" stroke-miterlimit="10" stroke-width="0.75"/><path d="M39.2,75.87c1.62,2.1,3,3.93,3.11,6.67" fill="none" stroke="#000" stroke-miterlimit="10" stroke-width="0.75"/><path d="M45.23,78.16S41.5,82,41.51,86" fill="none" stroke="#000" stroke-miterlimit="10" stroke-width="0.75"/><path d="M39.88,84.38A13.84,13.84,0,0,1,42.53,88a14,14,0,0,1,.84,2.54" fill="none" stroke="#000" stroke-miterlimit="10" stroke-width="0.75"/><path d="M46.59,87.67s-3,3.38-3.42,6.13" fill="none" stroke="#000" stroke-miterlimit="10" stroke-width="0.75"/><path d="M40.82,93s2.72,2.11,2.85,5.1" fill="none" stroke="#000" stroke-miterlimit="10" stroke-width="0.75"/><path d="M45.55,96.39s-3.31,2.84-3.78,4.88" fill="none" stroke="#000" stroke-miterlimit="10" stroke-width="0.75"/><path d="M40,100.08a15.5,15.5,0,0,1,2.49,4" fill="none" stroke="#000" stroke-miterlimit="10" stroke-width="0.75"/><path d="M45.37,102s-3.5,3.67-4.06,5.77" fill="none" stroke="#000" stroke-miterlimit="10" stroke-width="0.75"/><path d="M39.91,105.68a25.64,25.64,0,0,1,2.3,3.95" fill="none" stroke="#000" stroke-miterlimit="10" stroke-width="0.75"/><path d="M38,53.78s4.07,3.94,5.05,6.53" fill="#f7de48" stroke="#020202" stroke-miterlimit="10" stroke-width="0.75"/><polygon points="43.55 113.03 40.23 112.92 40.26 112.11 43.39 112.14 43.55 113.03" fill="#332e28" stroke="#000" stroke-miterlimit="10" stroke-width="0.75"/></g><path id="neck-2" data-name="neck" d="M51.2,67.88s-.3,12-.7,13.32S43,83.39,41.38,85.29s1,5.4,2.19,6.73c5.79,6.48,20.52,7.23,28.28,5.56,4.26-.92,13.83-6.26,14.65-11.2.41-2.45-6.8-3.81-8.51-4.9s-2.53-13.86-2.53-13.86Z" fill="#d19a75" stroke="#020202" stroke-miterlimit="10" stroke-width="0.75"/><path id="head-3" data-name="head" d="M62.5,23.34a27.4,27.4,0,0,0-10.15,1.51,9.89,9.89,0,0,0-5.47,3.92,12.76,12.76,0,0,0-1.3,3.72Q44,39.62,43,46.87a18.24,18.24,0,0,0-.48-2c-.32-.69-1.83-.5-2,.54A5.12,5.12,0,0,0,41,47.91a14.22,14.22,0,0,1,.88,2.6c.52,3.09-.3,3.29,0,5.7a2.25,2.25,0,0,0,1.25,1.55c.22.11,1.15.43,1.14-.07a32.21,32.21,0,0,0,1.11,8.53c1.09,3.38,4.56,6.09,7.14,8.32A26.81,26.81,0,0,0,58.89,79c6.23,2.8,12.29-1.2,15.7-6.38,2.34-3.54,5.41-5.89,5.75-10a34.22,34.22,0,0,0,.54-4.48c0-.45.56-.32.84-.3,1.67.11,2-2.33,2.18-3.55.33-2.12.16-4.36,1-6.38.43-1,1.57-2.49.35-3.4a2.1,2.1,0,0,0-2.45.05c-.89.63-.88,1.57-1.19,2.52a51.77,51.77,0,0,0-2-13.25A12.34,12.34,0,0,0,78,30a13.91,13.91,0,0,0-5.65-4.83,19.48,19.48,0,0,0-4.89-1.49A48.6,48.6,0,0,0,62.5,23.34Z" fill="#d19a75" stroke="#020202" stroke-miterlimit="10" stroke-width="0.75"/><path id="nose-4" data-name="nose" d="M63,55.45c-1.19,3.53-8.23,2.74-8.39,4.6-.25,2.88,5.11,2.45,7.32,1.4" fill="none" stroke="#020202" stroke-miterlimit="10" stroke-width="0.75"/><path d="M65.82,40.89c4.26-.58,9.49-5.34,11.3-1.2" fill="none" stroke="#020202" stroke-miterlimit="10" stroke-width="0.75"/><path d="M57.7,44.35c-2.76-.64-9.51-4.92-11.33-.76" fill="none" stroke="#020202" stroke-miterlimit="10" stroke-width="0.75"/><circle cx="71.25" cy="48.89" r="1.17" fill="#fff" stroke="#020202" stroke-miterlimit="10" stroke-width="0.75"/><circle cx="53.14" cy="48.87" r="1.17" fill="#fff" stroke="#020202" stroke-miterlimit="10" stroke-width="0.75"/><path d="M67.72,48s3.37-1.71,4.7-1.21,1.67,1.51,2.44,1.58" fill="none" stroke="#020202" stroke-miterlimit="10" stroke-width="0.75"/><path d="M56.07,49.15s-1.15-2.76-2.74-2.38a26.19,26.19,0,0,0-3.11.88" fill="none" stroke="#020202" stroke-miterlimit="10" stroke-width="0.75"/><path id="shirt-3" data-name="shirt" d="M7,124c.61-6.8,1.81-14.41,2.58-19.08s1-6.62,3.42-10.66S19.63,89,24,88.16c4.64-.91,6.63-2,11.28-2.63A36.16,36.16,0,0,0,43,83c.93-.42.34,7.56,7.77,11.3a28.18,28.18,0,0,0,27.3-1.78C81.5,90.25,82.8,86.63,85,83c3.34.65,6.45,2.06,9.66,3.12,5.54,1.83,15.39,1.32,17.67,8.18,2.66,8,3.71,21.15,5.4,29.9" fill="#099160" stroke="#020202" stroke-miterlimit="10" stroke-width="0.75"/><path d="M44.6,119.15h1v3.07H40v-3.07H41l-1.16-2H38.24v2h1v3.07H33.65v-3.07h1.14v-7.09H33.65V109h5.57V112h-1v2h1.52l1.16-2H40V109h5.55V112h-1l-2,3.59Z" fill="#fff"/><path d="M62.73,119.15v3.07H57.15v-3.07H58l-.2-1.06H55.7l-.2,1.06h.86v3.07H50.79v-3.07H52l1.24-7.09h-.94V109h8.83v3.07h-.94l1.21,7.09ZM57.42,116l-.66-4-.69,4Z" fill="#fff"/><path d="M78,118.18v4H67.93v-3.07H69v-7.06H67.93V109h5.65v3.08H72.49v7.06h2.1v-1Z" fill="#fff"/><path d="M93.4,109v4H90v-1h-2.1v2H91.6v3.08H90.48l-.76,0H87.85v2H90v-1H93.4v4H83.27v-3.07H84.4v-7.06H83.27V109Z" fill="#fff"/><path d="M37.15,85.12s1,7.13,4.71,11.35,9.08,6.68,20.91,6.68,18.14-4.09,19.91-5.93,6-8.32,8.15-12.48" fill="none" stroke="#000" stroke-miterlimit="10" stroke-width="0.75"/><line id="beauty_mark" data-name="beauty mark" x1="75.97" y1="50.99" x2="75.97" y2="51.96" fill="none" stroke="#020202" stroke-miterlimit="10" stroke-width="0.75"/><g id="glasses-2" data-name="glasses"><path d="M59.31,48.18a3.77,3.77,0,0,1,2.85-1.53,4.12,4.12,0,0,1,3,1.53" fill="none" stroke="#020202" stroke-miterlimit="10" stroke-width="3"/><path d="M51.66,40.24a8.63,8.63,0,1,0,8.63,8.63A8.64,8.64,0,0,0,51.66,40.24Zm0,14.43a5.8,5.8,0,1,1,5.8-5.8A5.8,5.8,0,0,1,51.66,54.67Z"/><path d="M72.44,40.24a8.63,8.63,0,1,0,8.62,8.63A8.63,8.63,0,0,0,72.44,40.24Zm0,14.43a5.8,5.8,0,1,1,5.79-5.8A5.8,5.8,0,0,1,72.47,54.67Z"/></g><path id="mouth-4" data-name="mouth" d="M66.67,70.24c0,2-4,2.18-4.46,2.18s-.92-1.61-.92-3.58.41-3.58.92-3.58S66.67,68.26,66.67,70.24Z" fill="#fff" stroke="#020202" stroke-miterlimit="10" stroke-width="0.75"/><g id="Layer_152" data-name="Layer 152"><path d="M89.69,111.47a9,9,0,0,0,.57-3.07,12.13,12.13,0,0,0-.59-3.37,11,11,0,0,0,.46-3,4.46,4.46,0,0,0-.89-2.61A29.82,29.82,0,0,0,90,94.17c.1-2.78-.89-3.28-.89-3.28a14.51,14.51,0,0,1,.34-2c.32-1.49-1-5.16-1-5.16a51.64,51.64,0,0,0,1.11-6,9,9,0,0,0-.86-4.67,22,22,0,0,0,.63-3.68,25.07,25.07,0,0,0-.85-6.75,37.56,37.56,0,0,0,.59-4.51,35.74,35.74,0,0,0-.83-6.52A20.41,20.41,0,0,1,86.52,44c.06-4.38-2.93-22.37-2.93-22.37-4.21-7.36-34.91-6.87-34.91-6.87s8,14.16,19,18.24C81.1,37.94,82.37,44.38,82.34,47.1s-.42,3.37-.82,5.7c0,.27.23,3.81.2,3.9a18.71,18.71,0,0,0-.7,4,27.27,27.27,0,0,0,.72,7.13A9.52,9.52,0,0,0,81,71.36a24.85,24.85,0,0,0,.63,6.3,27.88,27.88,0,0,0-.68,4.72,14.72,14.72,0,0,0,1,5.07,10.41,10.41,0,0,0,.1,4.42A16.5,16.5,0,0,0,83.32,96s-.2,1-.37,2.73a3.8,3.8,0,0,0,1,2.93s-.39,1.76-.51,2.67S85,108.05,85,108.05a9.07,9.07,0,0,1,1.63,3.39c.13.75-1.33,2.42-1.27,3.53.13,2.16,4.29,6.33,6.46,6.36a35.2,35.2,0,0,1-1-4.77A31.59,31.59,0,0,0,89.69,111.47Z" fill="#262626" stroke="#020202" stroke-miterlimit="10" stroke-width="0.75"/><path d="M82.66,56s1.94,1.73,3.48,6.71" fill="none" stroke="#000" stroke-miterlimit="10" stroke-width="0.75"/><path d="M88.48,63.1c-.1-.4-1.59,1.65-1.69,1.82-.71,1.31-1.09,2.79-1.72,4.14" fill="none" stroke="#000" stroke-miterlimit="10" stroke-width="0.75"/><path d="M81.74,67.79c1,1.26,2.08,2.12,2.77,3.55s.84,3.5,1.35,5" fill="none" stroke="#000" stroke-miterlimit="10" stroke-width="0.75"/><path d="M88.81,72.86C87.31,75.05,86,77,86.09,79.7" fill="none" stroke="#000" stroke-miterlimit="10" stroke-width="0.75"/><path d="M81.74,77.93s4,3.63,4.17,7.59" fill="none" stroke="#000" stroke-miterlimit="10" stroke-width="0.75"/><path d="M88.44,83.76a11.38,11.38,0,0,0-3.12,6.32" fill="none" stroke="#000" stroke-miterlimit="10" stroke-width="0.75"/><path d="M81.93,87.45s3.19,3.2,3.78,5.91" fill="none" stroke="#000" stroke-miterlimit="10" stroke-width="0.75"/><path d="M88.8,91.07s-2.6,2.27-2.55,5.27" fill="none" stroke="#000" stroke-miterlimit="10" stroke-width="0.75"/><path d="M83.48,96.09s3.48,2.64,4.07,4.65" fill="none" stroke="#000" stroke-miterlimit="10" stroke-width="0.75"/><path d="M89.24,99.45A15.32,15.32,0,0,0,87,103.63" fill="none" stroke="#000" stroke-miterlimit="10" stroke-width="0.75"/><path d="M84,101.65s3.71,3.45,4.39,5.52" fill="none" stroke="#000" stroke-miterlimit="10" stroke-width="0.75"/><path d="M89.67,105a25.54,25.54,0,0,0-2.07,4.08" fill="none" stroke="#000" stroke-miterlimit="10" stroke-width="0.75"/><path d="M88.92,54.29s-2.81,4.1-3.37,6.73" fill="#f7de48" stroke="#020202" stroke-miterlimit="10" stroke-width="0.75"/><rect x="86.18" y="111.07" width="3.88" height="0.81" fill="#332e28" stroke="#000" stroke-miterlimit="10" stroke-width="0.75"/></g><path d="M72.1,8.35S81.28,12.89,82.42,15s2.44,7.85,2.73,12.33c.26,4.13.71,13.44.71,13.86s-4.2-4.54-6.06-6.49c-1.54-1.63-7.07-6.21-7.64-10.49S70.67,9,72.1,8.35Z" fill="#0b0b7f" stroke="#020202" stroke-miterlimit="10" stroke-width="0.75"/><path id="front_of_hat" data-name="front of hat" d="M38.93,29.43s.14-7.07,0-10c-.24-5.16,4.1-7.49,8.3-9.29,2.86-1.22,7.79-4.52,11-4.25,1.56.13,12.16,1,13.91,2.47,5.09,4.33,4.92,11.41,5.78,19a48.26,48.26,0,0,1,0,6.37Z" fill="#0b0b7f" stroke="#020202" stroke-miterlimit="10" stroke-width="0.75"/><path d="M58.16,15.77v5.09A6.72,6.72,0,0,1,58,22.79a1.92,1.92,0,0,1-.94,1,3.63,3.63,0,0,1-1.8.42A2.38,2.38,0,0,1,54.09,24a.75.75,0,0,1-.44-.67.73.73,0,0,1,.23-.54.79.79,0,0,1,.55-.21.74.74,0,0,1,.75.57c.09.25.23.38.42.38A.42.42,0,0,0,56,23.2a4.62,4.62,0,0,0,.12-1.33V17.74A1,1,0,0,0,56,17.1c-.1-.12-.32-.18-.67-.18h-.19v-.67ZM56,12.54a1.13,1.13,0,0,1,1.12-1.13,1.13,1.13,0,0,1,1.12,1.13,1.11,1.11,0,0,1-.33.8,1.07,1.07,0,0,1-.79.33A1.14,1.14,0,0,1,56,12.54Z" fill="#fff" stroke="#fff" stroke-miterlimit="10" stroke-width="0.5"/><path d="M84,39.42s-6.7-8-12.7-11.72c-.82-.51-5.38-4.59-18.94-3.3-7.44.7-10,1-15.54,3.3-1.78.72-8.24,3.41-8.64,5.78-.15.9,2.16,1.69,2.81,1.86a35.93,35.93,0,0,0,6.56,1.24,15.7,15.7,0,0,0,1.65,1.71C39,37.1,39,36,40.1,35.13c1.63-1.25,8.12-3,17.43-3.09A83.21,83.21,0,0,1,78,34.36C79.77,35,84,39.42,84,39.42Z" fill="#0b0b7f" stroke="#020202" stroke-miterlimit="10" stroke-width="0.75"/></g></svg>