<svg t="1677671927797" 
 viewBox="0 0 1024 1024"
  version="1.1" 
  xmlns="http://www.w3.org/2000/svg" 
  p-id="9308" width="100%" height="100%"><path d="M511.596 71c70.854 0 135.028 28.738 181.49 75.191 46.454 46.458 75.187 110.631 75.187 181.491 0 70.856-28.732 135.057-75.187 181.492-11.642 11.638-24.383 22.154-38.07 31.387 54.225 20.51 102.906 52.275 143.197 92.449 73.471 73.305 118.924 174.484 118.924 286.14 0 19.285-15.651 34.937-34.961 34.937-19.283 0-34.934-15.651-34.934-34.937 0-92.508-37.527-176.211-98.19-236.716-60.643-60.479-144.447-97.946-237.039-98.069l-0.417 0-0.023 0-0.399 0c-92.63 0.123-176.433 37.59-237.058 98.069-60.662 60.505-98.19 144.208-98.19 236.716 0 19.285-15.651 34.937-34.957 34.937-19.288 0-34.938-15.651-34.938-34.937 0-111.655 45.455-212.835 118.942-286.14 40.255-40.174 88.936-71.939 143.161-92.449-13.67-9.232-26.411-19.749-38.049-31.387-46.438-46.435-75.172-110.636-75.172-181.492 0-70.86 28.734-135.033 75.172-181.491C376.539 99.738 440.717 71 511.596 71L511.596 71 511.596 71zM643.658 195.621c-33.792-33.793-80.495-54.727-132.063-54.727-51.573 0-98.294 20.934-132.085 54.727-33.793 33.792-54.723 80.489-54.723 132.062 0 51.574 20.93 98.271 54.723 132.087 33.691 33.688 80.249 54.58 131.663 54.702l0.399 0 0.023 0 0.399 0c51.408-0.122 97.964-21.014 131.66-54.702 33.796-33.816 54.726-80.514 54.726-132.087C698.38 276.109 677.45 229.413 643.658 195.621L643.658 195.621zM643.658 195.621" fill="#272636" p-id="9309"></path></svg>