<svg id="Person_1" data-name="Person 1" xmlns="http://www.w3.org/2000/svg" viewBox="0 0 125 125"><title>1</title><g id="head_copy" data-name="head copy"><path id="neck" d="M76,79.89s-.67-.3-.67-.88V72.36L49.45,73.64s.28,7.89-.31,8.56c0,0-3.09,2.27-2.2,4.15,1.86,3.9,7.19,6.25,11.23,6.9,5,.8,12.6,0,17-2.8C78,88.64,79.83,81.57,76,79.89Z" fill="#fce7d4" stroke="#020202" stroke-miterlimit="10" stroke-width="0.75"/><path id="face" d="M79.94,55.51s-.54,9.15-.73,9.9A12.57,12.57,0,0,1,77.74,69a67.85,67.85,0,0,1-5.48,7.5c-1,1-3.1,4.11-4.27,4.45a28.67,28.67,0,0,1-5.84.93c-1.24-.07-5.73-.67-6.72-1.27S51.05,76,48.26,72.23,44,65.48,43.81,64.54a43,43,0,0,1-.27-4.31l-.48.12s-.06.95-.89,1.06c-1.19.15-1.9-1.35-2.21-2.26-.51-1.54-.29-3.21-.84-4.74s-3.06-6.86-1.06-8.22c1.75-1.18,3.3.5,3.87,2.08a15.67,15.67,0,0,1,.44,1.63l.34-.08s-.05-3,0-5c.09-3.87-1.1-8.19.35-11.93C47.84,20.5,52.35,20,63.42,19.67,73.3,19.35,78.84,27.36,79.59,31A36.32,36.32,0,0,1,80.46,40c-.14,2.71-.51,9.49-.51,9.49l.32.07a29,29,0,0,1,1.31-3.31,1.71,1.71,0,0,1,3.17,1.28c-.29,1.06-.81,4.13-1,5.36a16.46,16.46,0,0,0,0,2.72c0,.82-.36,3.68-1.57,3.65C81.4,59.21,79.56,59.26,79.94,55.51Z" fill="#fce7d4" stroke="#020202" stroke-miterlimit="10" stroke-width="0.75"/></g><g id="shirt_copy" data-name="shirt copy"><rect x="48.68" y="87.42" width="29.29" height="27.06" fill="#fff" stroke="#020202" stroke-miterlimit="10" stroke-width="0.75"/><path id="Collar" d="M46.14,82.69a6.27,6.27,0,0,0,.67-2,7.31,7.31,0,0,1,.7-2.49c.39-.42,1.63-.5,1.63-.5s-1,1.49-.46,2a24,24,0,0,0,3.89,3c1.58.93,8.37,4.44,9.1,4.78s-.09.51-.51.54-3.47.36-4.49,1.46-7.27,8.15-7.27,8.15S45.62,83.21,46.14,82.69Z" fill="#fff" stroke="#020202" stroke-miterlimit="10" stroke-width="0.75"/><path id="collar-2" data-name="collar" d="M75.73,77.4s.75-.35,1,.31.38,2,.45,2.32A22,22,0,0,0,80,82.46L77,96.81S70.41,92,67.91,90.66s-5.91-2.79-5.75-3,13-6.8,13.57-9.59a.81.81,0,0,0,0-.38Z" fill="#fff" stroke="#020202" stroke-miterlimit="10" stroke-width="0.75"/><line x1="59.65" y1="88.26" x2="59.65" y2="110.27" fill="#fff" stroke="#020202" stroke-miterlimit="10" stroke-width="0.75"/><line x1="65.64" y1="89.4" x2="65.64" y2="110.72" fill="#fff" stroke="#020202" stroke-miterlimit="10" stroke-width="0.75"/><circle id="button" cx="62.62" cy="95.4" r="1.1" fill="#fff" stroke="#020202" stroke-miterlimit="10" stroke-width="0.75"/><circle id="button-2" data-name="button" cx="62.62" cy="103.86" r="1.1" fill="#fff" stroke="#020202" stroke-miterlimit="10" stroke-width="0.75"/></g><path id="Sweater" d="M121,125s-1.79-12.28-4.16-16.8A27.31,27.31,0,0,0,104.3,96.42c-5.75-2.6-25.24-15-25.25-14.3S76.69,96.67,72,103.33s-8.75,9.35-9.36,9.35-7.29-5.11-10-10.62-5.41-15.65-5.75-16.69-.74-2.68-.74-2.68-24.54,12.84-27,14-6.08,2.75-8.46,5.72S3.84,116.94,3.1,120.33A29.68,29.68,0,0,0,2.34,125" fill="#f9f7e1" stroke="#020202" stroke-miterlimit="10" stroke-width="0.75"/><path id="Stripe" d="M66.22,125A44.36,44.36,0,0,0,78,114.48a77.71,77.71,0,0,0,5.59-7.19c3.19-5.07,4.28-11.15,5.72-16.89A4.75,4.75,0,0,0,89.42,88L84.51,85c-2.17,10.65-5.18,21.39-14.3,28.67a85.89,85.89,0,0,1-7.53,5.82,28.39,28.39,0,0,1-9.75-7.86,55.74,55.74,0,0,1-7.57-12.33c-.55-1.22-5.09-13.58-4.46-13.91l-5.52,2.89s2.9,9.37,4.16,11.9,1.45,4.07,4.66,8.83a56.23,56.23,0,0,0,9.41,10.48A90.94,90.94,0,0,0,61.47,125" fill="#0b0b7f" stroke="#020202" stroke-miterlimit="10" stroke-width="0.75"/><path id="Stripe-2" data-name="Stripe" d="M84.51,85c-3.2-1.89-5.46-3.16-5.46-2.92,0,.71-2.36,14.55-7.09,21.21s-8.75,9.35-9.36,9.35-6.79-5.5-9.47-11a163.23,163.23,0,0,1-6.25-16.3c-.34-1-.74-2.68-.74-2.68L40.9,85.43c-.63.33,3.91,12.69,4.46,13.91a55.74,55.74,0,0,0,7.57,12.33,28.39,28.39,0,0,0,9.75,7.86,85.89,85.89,0,0,0,7.53-5.82C79.33,106.43,82.34,95.69,84.51,85Z" fill="#f44711" stroke="#020202" stroke-miterlimit="10" stroke-width="0.75"/><g id="eyes_copy" data-name="eyes copy"><path id="Eye" d="M56.46,45.87c0,1.36-.56,2.46-1.25,2.46S54,47.23,54,45.87s0-2.47,1.26-2.47C56.06,43.4,56.46,44.51,56.46,45.87Z" fill="#fff" stroke="#020202" stroke-miterlimit="10" stroke-width="0.75"/><path id="Eye-2" data-name="Eye" d="M72.64,45.42c0,1.47-.56,2.66-1.25,2.66s-1.26-1.19-1.26-2.66,0-2.66,1.26-2.66C72.24,42.76,72.64,44,72.64,45.42Z" fill="#fff" stroke="#020202" stroke-miterlimit="10" stroke-width="0.75"/><path id="undereye" d="M56.23,49.7a3.8,3.8,0,0,1-2.12,1.06c-1.11.05-2.68-.56-3-1.35" fill="none" stroke="#020202" stroke-miterlimit="10" stroke-width="0.75"/><path id="undereye-2" data-name="undereye" d="M67.81,49.84a7,7,0,0,0,3,1.28,3.45,3.45,0,0,0,2.51-1.54" fill="none" stroke="#020202" stroke-miterlimit="10" stroke-width="0.75"/><path id="eyebrow" d="M66.2,38.59s1.94-1.94,3.89-1.94S73,38.59,75,39.57" fill="none" stroke="#020202" stroke-miterlimit="10" stroke-width="0.75"/><path id="eyebrow-2" data-name="eyebrow" d="M60.36,39.57a11.79,11.79,0,0,0-2.92-2,4.6,4.6,0,0,0-5.84,1c-2,1.95-2,1.95-2.92,1.95" fill="none" stroke="#020202" stroke-miterlimit="10" stroke-width="0.75"/></g><g id="nose_copy" data-name="nose copy"><path d="M64.22,49.25s2.06,8.11,2.15,8.82,1.14,3.36.82,3.77-.34,1.45-1.08,1.61a15.25,15.25,0,0,1-2.83-.09,4,4,0,0,1-1.41-.5s-1.13.31-1.48.12a1.68,1.68,0,0,1-.73-1.28,5.07,5.07,0,0,1,.9-1.38" fill="none" stroke="#020202" stroke-miterlimit="10" stroke-width="0.75"/></g><path d="M80,24.67l-.49,0c.31.23.53-.4.41-.77C78.29,19,73.92,15.31,69,13.63c-5.24-1.79-12.8-2.28-17.58.84A24.77,24.77,0,0,0,41.7,26.78c-.59,1.65-1,3.37-1.74,5a7.68,7.68,0,0,1-3.41,3.86,4.19,4.19,0,0,1-4.86-.69,6,6,0,0,0,7.47,7.69l.14,3.1A5.91,5.91,0,0,1,42.49,49c1.1-1.94.75-4.42,1.72-6.43.82-1.7,2.56-3,2.7-4.91.2-2.77-3.29-5.18,3.18-8.73a1.16,1.16,0,0,1,.47-.14c2.19-.1,4.11,1.31,6,2.34A17.18,17.18,0,0,0,67.32,33a14.13,14.13,0,0,0,9.22-5.6,16.52,16.52,0,0,0-.66,7.21c.4,2.42,1.58,4.62,2.54,6.87a15.63,15.63,0,0,1,1.69,6.12.29.29,0,0,0,.55.16c.29-.51.51-1.06.79-1.61a14.81,14.81,0,0,0,.89-2.23,20.1,20.1,0,0,0-.7-13.38,1.63,1.63,0,0,1-.19-.8c.08-.67,1-.94,1.6-.63a3.12,3.12,0,0,1,1.24,1.56,4.49,4.49,0,0,0-4.31-6Z" fill="#f7de48" stroke="#020202" stroke-miterlimit="10" stroke-width="0.75"/><path id="mouth" d="M53.65,63.91A4.48,4.48,0,0,1,56,65.68a8.43,8.43,0,0,0,4.38,2.93c2.44.63,3.59.84,3.34,2.1s-2.14,1.7-3.34,2.21a8,8,0,0,1-5.83-1,4.92,4.92,0,0,1-2.23-3.45C51.88,66.73,52.22,63.17,53.65,63.91Z" fill="#fff" stroke="#020202" stroke-miterlimit="10" stroke-width="0.75"/></svg>