<svg xmlns="http://www.w3.org/2000/svg" viewBox="0 0 125 125"><title>2</title><g id="Person_2" data-name="Person 2"><g id="head"><path id="neck" d="M76.38,82s-.66-.29-.66-.86v-6.5l-25.3,1.26s.28,7.71-.3,8.37c0,0-1.51,1.86-.64,3.69s6.83,5.7,10.91,6.34,14.18-.23,16-2.55S79.88,83.1,76.38,82Z" fill="#d19a75" stroke="#020202" stroke-miterlimit="10" stroke-width="0.75"/><path id="face" d="M80.22,58.14s-.52,9-.7,9.68a12.74,12.74,0,0,1-1.44,3.47,66.66,66.66,0,0,1-5.36,7.33c-.92,1-3,4-4.17,4.35a27.52,27.52,0,0,1-5.71.91c-1.22-.07-5.61-.65-6.57-1.24s-4.28-4.52-7-8.16S45.1,67.89,44.91,67a40.55,40.55,0,0,1-.26-4.22l-.47.12s-.06.93-.87,1c-1.16.15-1.86-1.31-2.16-2.21-.5-1.5-.28-3.14-.82-4.63s-3-6.71-1-8c1.71-1.16,3.23.48,3.78,2a13.7,13.7,0,0,1,.43,1.59l.33-.08s0-2.89,0-4.93c.09-3.78-1.07-8,.35-11.66,4.67-12.07,9.08-12.52,19.9-12.88,9.66-.31,15.08,7.52,15.8,11.11A35.59,35.59,0,0,1,80.74,43c-.15,2.66-.5,9.28-.5,9.28l.31.07a28,28,0,0,1,1.28-3.24,1.67,1.67,0,0,1,3.1,1.26c-.29,1-.8,4-1,5.23a16.88,16.88,0,0,0,0,2.66c0,.8-.35,3.6-1.53,3.57C81.65,61.76,79.86,61.81,80.22,58.14Z" fill="#d19a75" stroke="#020202" stroke-miterlimit="10" stroke-width="0.75"/></g><g id="collar"><rect x="49.67" y="89.33" width="28.63" height="26.45" fill="#fff" stroke="#020202" stroke-miterlimit="10" stroke-width="0.75"/><path id="Collar-2" data-name="Collar" d="M47.19,84.71a6.37,6.37,0,0,0,.66-1.94,7,7,0,0,1,.68-2.44c.38-.41,1.6-.49,1.6-.49s-1,1.46-.45,2a23.34,23.34,0,0,0,3.8,2.92c1.54.91,8.18,4.34,8.89,4.67s-.09.5-.5.53a8.8,8.8,0,0,0-4,1.77c-1,1.08-7.51,7.62-7.51,7.62S46.68,85.22,47.19,84.71Z" fill="#fff" stroke="#020202" stroke-miterlimit="10" stroke-width="0.75"/><path id="collar-3" data-name="collar" d="M76.11,79.54s.74-.34.93.3.38,1.93.44,2.27a21.07,21.07,0,0,0,2.78,2.38l-2.91,14s-6.44-4.71-8.89-6-5.76-2.73-5.61-2.91S75.52,83,76.12,80.22a.81.81,0,0,0,0-.38Z" fill="#fff" stroke="#020202" stroke-miterlimit="10" stroke-width="0.75"/></g><g id="tie"><path d="M58.3,107.49s1-4.87,1.36-6.2c.28-1,1.22-4.67,1.18-5s1.72-.34,2.34-.39c1.18-.09,2.19,0,2.42.69a48.59,48.59,0,0,1,1.21,5.2c.23,1.58,1.55,9.43,1.62,9.88s1.07,3.15.85,3.53-4,.69-5.18.41-6.37.2-6.21-.37S58.26,107.79,58.3,107.49Z" fill="#f44711" stroke="#020202" stroke-miterlimit="10" stroke-width="0.75"/><path d="M67.15,91.81a.72.72,0,0,1-.17.42,12,12,0,0,1-1,1.22,1.38,1.38,0,0,0-.44,1,3.2,3.2,0,0,0,.26.6.48.48,0,0,1-.11.6.71.71,0,0,1-.24.06,26.25,26.25,0,0,1-4.69.09.69.69,0,0,1-.32-.08c-.26-.16-.16-.56,0-.82s.38-.55.28-.84a.88.88,0,0,0-.37-.37c-.53-.35-1.16-.44-1.69-.79a1.92,1.92,0,0,1-.59-.54c-.65-1,3.93-2.79,4.81-2.79,1.22,0,1.75.62,2.58,1a10.51,10.51,0,0,1,1.31.74C67,91.52,67.14,91.64,67.15,91.81Z" fill="#f44711" stroke="#020202" stroke-miterlimit="10" stroke-width="0.75"/></g><g id="hair"><path d="M45.07,48.39s-1.22,5.84-1.87,4.22-.57-2.6-1.13-3.81S39.79,44.25,40,43.68a69.16,69.16,0,0,0,0-7c-.07-2.11-.56-6.66.33-8.52a20.8,20.8,0,0,1,3.81-5c.41-.25,1.3-.73,1.3-.73A5.37,5.37,0,0,1,47.91,18c2.68-1.7,9.25-5,16.14-5.2s15,6.26,16.48,8.12a11.57,11.57,0,0,1,1.94,4.3s1.87,2.52,2,3.33a18.08,18.08,0,0,1,0,2.27c-.14,2.67,2.52,8.72-.16,11a12,12,0,0,0-.89.81,32.46,32.46,0,0,1-.9,5c-.48,1.3-.73,3.41-1.54,3.73a6.63,6.63,0,0,0-1.3.67c.13-2.84.38-5.68.36-8.53s-.08-4.49-2.22-6.42a6.25,6.25,0,0,0-4.63-1.38c-2.43.08-6.59,1.62-8-.24s.59-3.9-2-4.22c-2.29-.29-4.72.46-7,.55-1.41.06-3.93,0-5.14-.88l-.65-.48A13,13,0,0,1,49,33.54a9.61,9.61,0,0,0-1.29,3.82c-.25,1.46-1.38,1.68-2,3S45.47,46.68,45.07,48.39Z" fill="#23211b" stroke="#000" stroke-miterlimit="10" stroke-width="0.75"/></g><g id="eyes"><path id="Eye" d="M57.28,48.72c0,1.33-.55,2.41-1.23,2.41s-1.22-1.08-1.22-2.41,0-2.41,1.22-2.41C56.89,46.31,57.28,47.39,57.28,48.72Z" fill="#fff" stroke="#020202" stroke-miterlimit="10" stroke-width="0.75"/><path id="Eye-2" data-name="Eye" d="M73.1,48.28c0,1.44-.55,2.6-1.23,2.6s-1.23-1.16-1.23-2.6,0-2.6,1.23-2.6C72.7,45.68,73.1,46.85,73.1,48.28Z" fill="#fff" stroke="#020202" stroke-miterlimit="10" stroke-width="0.75"/><path id="undereye" d="M57.05,52.46a3.68,3.68,0,0,1-2.07,1c-1.08,0-2.62-.55-2.88-1.32" fill="none" stroke="#020202" stroke-miterlimit="10" stroke-width="0.75"/><path id="undereye-2" data-name="undereye" d="M68.37,52.61a6.83,6.83,0,0,0,2.91,1.24,3.36,3.36,0,0,0,2.46-1.51" fill="none" stroke="#020202" stroke-miterlimit="10" stroke-width="0.75"/><path id="eyebrow" d="M66.79,41.61s1.91-1.9,3.81-1.9,2.85,1.9,4.76,2.85" fill="none" stroke="#020202" stroke-miterlimit="10" stroke-width="0.75"/><path id="eyebrow-2" data-name="eyebrow" d="M61.09,42.56a11.71,11.71,0,0,0-2.86-1.9,4.48,4.48,0,0,0-5.7,1c-1.9,1.9-1.9,1.9-2.86,1.9" fill="none" stroke="#020202" stroke-miterlimit="10" stroke-width="0.75"/></g><g id="nose"><path d="M64.86,52s2,7.92,2.1,8.62,1.12,3.28.8,3.68-.32,1.42-1.05,1.58A15.36,15.36,0,0,1,64,65.82a4.23,4.23,0,0,1-1.39-.49s-1.1.31-1.45.12a1.71,1.71,0,0,1-.71-1.25,5.14,5.14,0,0,1,.88-1.36" fill="none" stroke="#020202" stroke-miterlimit="10" stroke-width="0.75"/></g><g id="sweater"><path id="Sweater-2" data-name="Sweater" d="M121.05,125s-2.42-10.94-4.73-15.35A26.71,26.71,0,0,0,104,98.13c-5.62-2.54-24.68-14.67-24.68-14s-2.31,14.23-6.94,20.74S63.87,114,63.28,114s-7.12-5-9.75-10.38-5.28-15.3-5.62-16.31-.72-2.62-.72-2.62-24,12.56-26.38,13.74-5.95,2.68-8.27,5.59-6.7,14.15-7.41,17.46-.72,3.58-.72,3.58" fill="#91e3f9" stroke="#020202" stroke-miterlimit="10" stroke-width="0.75"/></g><g id="alligator"><path d="M88.94,118.48c-.21,0-.42,0-.63,0a3,3,0,0,1-1.09-.25,2.12,2.12,0,0,1-.2-.12,3.19,3.19,0,0,0-.49-.25,1.61,1.61,0,0,0-.44-.06,2.16,2.16,0,0,0-1,.31l-.17.09a1.47,1.47,0,0,1-.59.25h0a1,1,0,0,1-.61-.24,1.88,1.88,0,0,0-1-.37,1.29,1.29,0,0,0-.6.2l-.2.1-.12,0a2.62,2.62,0,0,1-.69.09,2.81,2.81,0,0,1-.5,0,1.65,1.65,0,0,1-.65-.51,1.28,1.28,0,0,1-.25-.58,2.92,2.92,0,0,1,.41-2.51,2.54,2.54,0,0,1,1.41-.7,8.08,8.08,0,0,1,1.1-.15l.69-.08.21,0a5.08,5.08,0,0,1,.67-.07h.11a1,1,0,0,1,.68.28.4.4,0,0,1,0,.48.75.75,0,0,1-.35.16,4.8,4.8,0,0,1-1,.08h-.36a5,5,0,0,0-.82.08l-.41.12a.53.53,0,0,0-.39.48.55.55,0,0,0,.42.52,1.32,1.32,0,0,0,.36,0h.2l.35,0c.3,0,.61,0,.91,0a4,4,0,0,1,.82.08l.18,0a3,3,0,0,0,.64.1,2.34,2.34,0,0,0,.72-.16,1.53,1.53,0,0,1,.45-.11h.11a1.7,1.7,0,0,0,.33.12h.13a1.26,1.26,0,0,0,.27,0l2.22-.45.17,0a1.88,1.88,0,0,1,.19.72l-.39.12c-.28.1-.55.21-.84.29a2.72,2.72,0,0,1-.57.1h0l-.2,0-.27,0h-.13c-.38,0-.47.26-.48.39-.06.37.36.53.52.6a2.36,2.36,0,0,0,.9.16h.3l.12,0h.22a.94.94,0,0,1,.4.12,2.45,2.45,0,0,0,.54.17,1.19,1.19,0,0,1-.62.47A2,2,0,0,1,88.94,118.48Z" fill="#08af2b"/><path d="M84.13,114h.09a.6.6,0,0,1,.41.15h0l-.12,0a4.58,4.58,0,0,1-.94.08h-.36a4.84,4.84,0,0,0-.88.1,2.75,2.75,0,0,0-.49.14.89.89,0,0,0-.61.79v.15a.88.88,0,0,0,.7.76,1.53,1.53,0,0,0,.45.06h.22l.36,0c.31,0,.6,0,.88,0a3.26,3.26,0,0,1,.74.07l.17,0a3,3,0,0,0,.72.11h.12a3.27,3.27,0,0,0,.73-.17,1.06,1.06,0,0,1,.33-.08h0a1.41,1.41,0,0,0,.36.11h.32a.84.84,0,0,0-.55.65c0,.31.06.73.76,1a2.93,2.93,0,0,0,1,.19l.32,0h.13l.19,0h0l.13,0a2.19,2.19,0,0,1-.47,0,5.65,5.65,0,0,1-.59,0,2.48,2.48,0,0,1-.95-.2l-.18-.11a2.41,2.41,0,0,0-.58-.28,1.67,1.67,0,0,0-.55-.09,2.53,2.53,0,0,0-1.23.36l-.18.1a1.22,1.22,0,0,1-.45.2,1,1,0,0,1-.37-.18,2.2,2.2,0,0,0-1.26-.43h0a1.61,1.61,0,0,0-.73.24.41.41,0,0,1-.11.06l-.14.05-.05,0a2.33,2.33,0,0,1-.53.06,2.59,2.59,0,0,1-.41,0,1.51,1.51,0,0,1-.46-.39A1.06,1.06,0,0,1,80,117a2.58,2.58,0,0,1,.32-2.18,2.29,2.29,0,0,1,1.2-.59c.34-.07.69-.1,1.07-.14l.7-.08.21,0a4.79,4.79,0,0,1,.62-.06m5.53,1.8v0l-.09,0a7.23,7.23,0,0,1-.82.28,2,2,0,0,1-.49.1l-.13,0-.32,0h-.09l.91-.19,1-.21m-5.53-2.55a7.34,7.34,0,0,0-.93.1c-.61.08-1.22.1-1.82.23a3,3,0,0,0-1.61.82,3.19,3.19,0,0,0-.49,2.84,1.55,1.55,0,0,0,.33.75,1.92,1.92,0,0,0,.87.63,3.43,3.43,0,0,0,.56.05,3.27,3.27,0,0,0,.7-.08l.21-.07c.2,0,.46-.28.67-.28h0c.64,0,1,.61,1.58.61h.08a2.46,2.46,0,0,0,.91-.4,2,2,0,0,1,.87-.26,1.13,1.13,0,0,1,.32,0,4.89,4.89,0,0,1,.64.34,3.26,3.26,0,0,0,1.23.29c.22,0,.44,0,.66,0a2.39,2.39,0,0,0,.75-.11,1.24,1.24,0,0,0,.9-1,.12.12,0,0,0,0-.1c0-.09-.17-.09-.27-.09-.33,0-.61-.25-.94-.29h-.11c-.13,0-.25,0-.38,0l-.25,0a2,2,0,0,1-.77-.14c-.14-.06-.49-.23-.14-.27h.09c.15,0,.3,0,.45,0h0a2.39,2.39,0,0,0,.65-.11c.43-.12.84-.29,1.26-.44a.35.35,0,0,0,.2-.13.38.38,0,0,0,0-.21,2.3,2.3,0,0,0-.16-.77.62.62,0,0,0-.17-.25.46.46,0,0,0-.23-.06.93.93,0,0,0-.24,0l-2.23.46-.19,0h-.07a2.15,2.15,0,0,1-.27-.1.62.62,0,0,0-.23,0c-.36,0-.73.25-1.11.27h-.07a3.87,3.87,0,0,1-.73-.13,3.87,3.87,0,0,0-.9-.09c-.43,0-.86,0-1.28.07h-.18a1.09,1.09,0,0,1-.26,0c-.08,0-.13,0-.14-.13s.06-.12.15-.16l.35-.1a4.78,4.78,0,0,1,.76-.08,6.93,6.93,0,0,0,1.44-.1,1,1,0,0,0,.55-.27.76.76,0,0,0,0-1,1.31,1.31,0,0,0-.95-.42Z"/></g><path id="mouth" d="M54.53,66.35a4.37,4.37,0,0,1,2.3,1.74A8.35,8.35,0,0,0,61.11,71c2.4.62,3.52.82,3.27,2s-2.09,1.66-3.27,2.16a7.79,7.79,0,0,1-5.69-.93,4.79,4.79,0,0,1-2.18-3.36C52.8,69.11,53.13,65.63,54.53,66.35Z" fill="#fff" stroke="#020202" stroke-miterlimit="10" stroke-width="0.75"/></g></svg>